<?xml version="1.0" encoding="UTF-8"?>
<svg version="1.1" xmlns="http://www.w3.org/2000/svg" width="612" height="408">
<path d="M0 0 C1.25683594 -0.020625 2.51367188 -0.04125 3.80859375 -0.0625 C15.94351762 -0.11238663 29.75342107 0.73447261 39.25 9.25 C39.93024253 10.91117197 40.59858992 12.57731141 41.25 14.25 C42.24 14.58 43.23 14.91 44.25 15.25 C49.38411345 27.44137307 49.88630581 39.86345165 45.25 52.25 C43.53620987 55.22450931 41.55773463 57.71798426 39.25 60.25 C38.486875 61.1575 37.72375 62.065 36.9375 63 C29.076609 69.58121107 20.09249542 70.42033349 10.12890625 70.34765625 C9.38414536 70.3462413 8.63938446 70.34482635 7.87205505 70.34336853 C5.51882727 70.33781989 3.1656985 70.32527733 0.8125 70.3125 C-0.79361841 70.30747835 -2.39973832 70.30291661 -4.00585938 70.29882812 C-7.92061043 70.28786735 -11.83528849 70.27063884 -15.75 70.25 C-16.36802563 55.93678938 -16.85160822 41.63996519 -16.875 27.3125 C-16.87951172 26.19649414 -16.88402344 25.08048828 -16.88867188 23.93066406 C-16.86008786 7.97602104 -16.86008786 7.97602104 -15.75 1.25 C-11.21868683 -1.01565658 -4.97258178 0.01967391 0 0 Z M0.25 14.25 C0.25 28.44 0.25 42.63 0.25 57.25 C15.53176244 57.41908733 15.53176244 57.41908733 26.76953125 49.75 C31.0073123 45.45631155 31.12145047 41.21038031 31.5 35.4375 C31.38443298 29.94281368 30.34726834 24.62589094 26.6328125 20.41796875 C17.94317547 12.75393266 13.7874876 14.25 0.25 14.25 Z " fill="#1D43A8" transform="translate(153.75,189.75)"/>
<path d="M0 0 C0.93199219 -0.03738281 1.86398437 -0.07476562 2.82421875 -0.11328125 C5.3125 0.3125 5.3125 0.3125 7.05859375 2.1171875 C8.47221776 4.59213047 9.46919962 7.13245506 10.41796875 9.81640625 C11.95321079 14.10033491 13.65882335 18.31996528 15.32421875 22.5546875 C16.3125 25.3125 16.3125 25.3125 16.3125 27.3125 C16.9725 27.3125 17.6325 27.3125 18.3125 27.3125 C18.53292969 26.38244141 18.53292969 26.38244141 18.7578125 25.43359375 C20.24797636 19.55001576 22.08990103 13.85419136 24.25 8.1875 C24.61085693 7.19254517 24.61085693 7.19254517 24.97900391 6.17749023 C26.78453281 1.58219753 26.78453281 1.58219753 29.1171875 0.390625 C29.84164062 0.36484375 30.56609375 0.3390625 31.3125 0.3125 C32.29605469 0.26867187 33.27960938 0.22484375 34.29296875 0.1796875 C35.35128906 0.18226563 36.40960938 0.18484375 37.5 0.1875 C39.09908203 0.18363281 39.09908203 0.18363281 40.73046875 0.1796875 C43.3125 0.3125 43.3125 0.3125 44.3125 1.3125 C44.35313832 2.97867115 44.355221 4.64638095 44.3125 6.3125 C43.6525 6.3125 42.9925 6.3125 42.3125 6.3125 C42.12880859 7.62154297 42.12880859 7.62154297 41.94140625 8.95703125 C40.11128985 18.7214411 35.14244805 28.15511988 31.26660156 37.27294922 C28.84530532 42.98587469 26.5704574 48.7305141 24.41796875 54.55078125 C22.2991733 59.84402643 20.77247353 63.55808304 15.8125 66.625 C14.65234375 67.36169922 14.65234375 67.36169922 13.46875 68.11328125 C7.14851194 71.62834118 0.15732868 70.45330478 -6.6875 69.3125 C-6.88241452 67.85513913 -7.06819358 66.39655407 -7.25 64.9375 C-7.35441406 64.12539063 -7.45882813 63.31328125 -7.56640625 62.4765625 C-7.6875 60.3125 -7.6875 60.3125 -6.6875 58.3125 C-7.3475 58.3125 -8.0075 58.3125 -8.6875 58.3125 C-8.3575 57.3225 -8.0275 56.3325 -7.6875 55.3125 C-3.3975 55.3125 0.8925 55.3125 5.3125 55.3125 C4.9825 54.3225 4.6525 53.3325 4.3125 52.3125 C4.82425781 51.93480469 5.33601563 51.55710937 5.86328125 51.16796875 C7.61079375 49.3492814 7.61079375 49.3492814 7.16796875 46.61328125 C6.94753906 45.62714844 6.72710937 44.64101562 6.5 43.625 C6.28730469 42.63113281 6.07460938 41.63726562 5.85546875 40.61328125 C5.67628906 39.85402344 5.49710937 39.09476563 5.3125 38.3125 C4.6525 38.3125 3.9925 38.3125 3.3125 38.3125 C2.89291016 37.16587891 2.89291016 37.16587891 2.46484375 35.99609375 C-0.17627977 28.93894376 -3.0778676 22.11794715 -6.36352539 15.33959961 C-7.5438914 12.88323379 -8.62196997 10.61383885 -9.203125 7.94140625 C-9.36296875 7.40386719 -9.5228125 6.86632812 -9.6875 6.3125 C-10.6775 5.9825 -11.6675 5.6525 -12.6875 5.3125 C-12.3575 3.9925 -12.0275 2.6725 -11.6875 1.3125 C-7.80157435 0.47229986 -3.96427348 0.14195674 0 0 Z " fill="#6DB02C" transform="translate(449.6875,210.6875)"/>
<path d="M0 0 C0.12632812 0.71285156 0.25265625 1.42570313 0.3828125 2.16015625 C1.88634214 9.07829581 4.6599332 15.77533005 8 22 C8.66666667 23.33333333 9.33333333 24.66666667 10 26 C12.41779574 23.58220426 12.86042884 21.75333563 13.875 18.5 C18.8225089 3.1774911 18.8225089 3.1774911 22 0 C25.2578125 -0.1953125 25.2578125 -0.1953125 29.125 -0.125 C31.04699219 -0.09792969 31.04699219 -0.09792969 33.0078125 -0.0703125 C34.48894531 -0.03550781 34.48894531 -0.03550781 36 0 C37.10759123 2.75259358 37.05753226 3.84687911 35.99609375 6.671875 C35.22458984 8.19554687 35.22458984 8.19554687 34.4375 9.75 C31.96529443 14.84354651 29.81432393 19.93185396 27.875 25.25 C26.0702285 30.17378686 24.19473963 35.02074231 22 39.78515625 C20.74712048 42.56008863 19.59551567 45.37172976 18.4375 48.1875 C14.97056912 56.49127366 11.80959665 62.96155055 4 68 C-2.49278243 69.99988657 -9.4113555 69.1214714 -16 68 C-16 66.02 -16 64.04 -16 62 C-15.67 62 -15.34 62 -15 62 C-14.67 60.35 -14.34 58.7 -14 57 C-14.66 57 -15.32 57 -16 57 C-15.67 56.01 -15.34 55.02 -15 54 C-14.40832031 54.10699219 -13.81664062 54.21398437 -13.20703125 54.32421875 C-9.35788636 54.90818364 -6.75286294 55.28833049 -3.0625 53.875 C-0.52549355 51.5686305 0.22145907 50.35517441 1 47 C0.07951169 44.08835111 -0.90570556 41.58598386 -2.19921875 38.84765625 C-2.55007034 38.06990341 -2.90092194 37.29215057 -3.2624054 36.49082947 C-4.38777163 34.00689589 -5.5372602 31.53499831 -6.6875 29.0625 C-7.44364421 27.40241461 -8.19821954 25.74161367 -8.95117188 24.08007812 C-12.69660301 15.79344732 -12.69660301 15.79344732 -16.76098633 7.66186523 C-18.19791697 4.57480025 -18.03139798 3.18795741 -17 0 C-11.23073111 -1.40333568 -5.81856895 -0.67296616 0 0 Z " fill="#1E45AA" transform="translate(351,211)"/>
<path d="M0 0 C0.85045898 -0.00580078 1.70091797 -0.01160156 2.57714844 -0.01757812 C9.4785927 0.11611897 15.12648802 1.37612428 20.75 5.625 C27.37595384 14.33339648 26.2955887 24.70379625 26.125 35.0625 C26.10992639 36.65949259 26.09624272 38.25649894 26.08398438 39.85351562 C26.05118925 43.73602124 25.99955574 47.61785633 25.9375 51.5 C23.47816009 51.38630789 21.0207091 51.25957349 18.5625 51.125 C17.86382812 51.0940625 17.16515625 51.063125 16.4453125 51.03125 C11.1640625 50.7265625 11.1640625 50.7265625 8.9375 48.5 C7.97650391 48.933125 7.97650391 48.933125 6.99609375 49.375 C0.9903525 51.95272501 -3.85462542 53.90741197 -10.3515625 51.734375 C-14.63016968 49.97833427 -18.1729249 48.23236784 -21.0625 44.5 C-22.91671739 38.93734782 -23.01540222 32.70900061 -20.6875 27.3125 C-20.15125 26.714375 -19.615 26.11625 -19.0625 25.5 C-18.4025 25.5 -17.7425 25.5 -17.0625 25.5 C-17.0625 24.84 -17.0625 24.18 -17.0625 23.5 C-8.85085114 19.96191482 1.09193206 16.55147735 9.9375 19.5 C8.07183512 15.87206002 8.07183512 15.87206002 4.9375 13.5 C-0.52233574 13.08447268 -5.03692962 13.2025964 -10.0625 15.5 C-12.6875 15.9375 -12.6875 15.9375 -15.0625 15.5 C-17.60450808 12.3224899 -18.34827756 9.43483657 -19.0625 5.5 C-13.2646209 0.4894872 -7.352974 0.00538482 0 0 Z M-5.0625 31.5 C-5.3925 33.81 -5.7225 36.12 -6.0625 38.5 C-2.5538604 40.83909307 -1.19160567 40.91291057 2.9375 40.5 C5.8190211 39.19021768 7.4718306 38.18741673 9.25 35.5625 C10.14831851 33.22988878 10.14831851 33.22988878 9.9375 29.5 C4.4985835 29.28244334 0.06669186 29.39571616 -5.0625 31.5 Z " fill="#2248AA" transform="translate(229.0625,209.5)"/>
<path d="M0 0 C0.72960937 -0.00773438 1.45921875 -0.01546875 2.2109375 -0.0234375 C7.04221499 -0.00618294 11.03981766 0.72563859 15.625 2.25 C16.97427078 8.26038803 16.12267278 10.90151303 13.625 16.25 C12.45582031 16.22679687 11.28664063 16.20359375 10.08203125 16.1796875 C8.53386058 16.16092179 6.98568297 16.14272245 5.4375 16.125 C4.28411133 16.09986328 4.28411133 16.09986328 3.10742188 16.07421875 C-2.91179896 15.9753614 -2.91179896 15.9753614 -8.375 18.25 C-9.26886164 20.79775306 -9.26886164 20.79775306 -9.375 23.25 C-8.51950562 23.24214478 -8.51950562 23.24214478 -7.64672852 23.23413086 C-5.07699677 23.21341779 -2.50728253 23.2003581 0.0625 23.1875 C1.40924805 23.17493164 1.40924805 23.17493164 2.78320312 23.16210938 C3.63720703 23.15888672 4.49121094 23.15566406 5.37109375 23.15234375 C6.16185303 23.14710693 6.9526123 23.14187012 7.76733398 23.13647461 C9.625 23.25 9.625 23.25 10.625 24.25 C10.69758946 26.43639453 10.70873783 28.62500389 10.6875 30.8125 C10.67847656 32.01003906 10.66945313 33.20757812 10.66015625 34.44140625 C10.64855469 35.36824219 10.63695312 36.29507813 10.625 37.25 C6.34615394 39.3603435 2.48635858 39.49128739 -2.1875 39.375 C-3.22680664 39.36146484 -3.22680664 39.36146484 -4.28710938 39.34765625 C-5.98322395 39.32426157 -7.67915871 39.28839641 -9.375 39.25 C-9.36714478 40.69620728 -9.36714478 40.69620728 -9.35913086 42.17163086 C-9.34107882 45.73672564 -9.32956726 49.30181636 -9.32006836 52.86694336 C-9.3150286 54.41219766 -9.3081968 55.95744716 -9.29956055 57.50268555 C-9.28747924 59.71925029 -9.28176827 61.93575218 -9.27734375 64.15234375 C-9.27218246 64.8471434 -9.26702118 65.54194305 -9.26170349 66.25779724 C-9.26150723 67.9222933 -9.31310871 69.58665499 -9.375 71.25 C-10.375 72.25 -10.375 72.25 -13.75390625 72.34765625 C-15.14847077 72.34098369 -16.54301743 72.32902532 -17.9375 72.3125 C-18.64841797 72.30798828 -19.35933594 72.30347656 -20.09179688 72.29882812 C-21.85290013 72.28700864 -23.61396036 72.26907263 -25.375 72.25 C-26.36981857 67.31311491 -26.49130906 62.64708755 -26.4375 57.640625 C-26.43371338 56.83260437 -26.42992676 56.02458374 -26.42602539 55.19207764 C-26.41387305 52.62799583 -26.39523093 50.06403 -26.375 47.5 C-26.34846635 44.10937826 -26.32846536 40.71881106 -26.3125 37.328125 C-26.30420166 36.54794006 -26.29590332 35.76775513 -26.28735352 34.96392822 C-26.17736547 30.97788077 -26.17736547 30.97788077 -27.375 27.25 C-27.15124496 24.90917801 -26.84788919 22.5756154 -26.5 20.25 C-26.31695312 18.991875 -26.13390625 17.73375 -25.9453125 16.4375 C-25.375 13.25 -25.375 13.25 -24.375 11.25 C-23.715 11.25 -23.055 11.25 -22.375 11.25 C-22.189375 10.5075 -22.00375 9.765 -21.8125 9 C-19.87337423 5.29036809 -17.04579857 3.93459494 -13.375 2.25 C-12.64667969 1.88777344 -11.91835938 1.52554688 -11.16796875 1.15234375 C-7.43942117 -0.05226393 -3.87433393 -0.04063987 0 0 Z " fill="#6DAF2D" transform="translate(425.375,188.75)"/>
<path d="M0 0 C1.3255128 0.1888585 2.65103327 0.37766314 3.9765625 0.56640625 C4.97429687 0.70949219 5.97203125 0.85257813 7 1 C7 1.66 7 2.32 7 3 C8.155 3.144375 9.31 3.28875 10.5 3.4375 C18.33913972 5.11102421 25.19515949 9.94214419 32 14 C32 14.66 32 15.32 32 16 C32.556875 16.061875 33.11375 16.12375 33.6875 16.1875 C36.98120783 17.3447487 38.59504754 19.48318929 41 22 C43.29933066 24.04065596 45.64447835 26.02462017 48 28 C47.67 29.32 47.34 30.64 47 32 C46.16339844 31.3709375 45.32679688 30.741875 44.46484375 30.09375 C27.3069981 17.39365326 8.89963012 7.59445129 -13 8 C-13.495 7.505 -13.495 7.505 -14 7 C-20.94980086 6.23108586 -27.88638384 7.26921973 -34.75 8.3125 C-35.55356934 8.43012695 -36.35713867 8.54775391 -37.18505859 8.66894531 C-42.22981037 9.48453264 -46.34673833 10.91304722 -51 13 C-51.99 13 -52.98 13 -54 13 C-54.33 13.66 -54.66 14.32 -55 15 C-56.7421875 15.9296875 -56.7421875 15.9296875 -58.875 16.875 C-62.15679717 18.43944094 -64.14840055 19.75970097 -66 23 C-65.67 23.66 -65.34 24.32 -65 25 C-64.93003986 26.70702735 -64.91559846 28.41668003 -64.9375 30.125 C-64.94652344 31.03507812 -64.95554687 31.94515625 -64.96484375 32.8828125 C-64.97644531 33.58148438 -64.98804688 34.28015625 -65 35 C-73.4117928 38.71950022 -73.4117928 38.71950022 -77.9375 37.125 C-81 35 -81 35 -82.625 31.625 C-83 28 -83 28 -82.125 25.5 C-79.63487789 22.57044457 -76.90659548 20.15580525 -73.96484375 17.6875 C-71.86254061 15.94708547 -71.86254061 15.94708547 -69.6875 13.5 C-50.85701752 -4.01672789 -23.84286228 -3.42397498 0 0 Z " fill="#1B44AC" transform="translate(345,168)"/>
<path d="M0 0 C0 0.66 0 1.32 0 2 C1.32 2 2.64 2 4 2 C5.10370043 5.3111013 4.92673641 7.24748949 4.5625 10.6875 C4.46066406 11.68136719 4.35882813 12.67523438 4.25390625 13.69921875 C4.17011719 14.45847656 4.08632813 15.21773437 4 16 C3.33613281 15.98839844 2.67226563 15.97679687 1.98828125 15.96484375 C-4.56306787 15.88106591 -4.56306787 15.88106591 -11 17 C-11 17.66 -11 18.32 -11 19 C-11.4844458 19.39936768 -11.9688916 19.79873535 -12.46801758 20.21020508 C-14.76183473 22.89004149 -14.43573173 25.15651312 -14.51171875 28.63671875 C-14.54716797 29.93544922 -14.58261719 31.23417969 -14.61914062 32.57226562 C-14.6422405 33.94400517 -14.6650229 35.3157501 -14.6875 36.6875 C-14.72067542 38.07099607 -14.75516531 39.45446129 -14.79101562 40.83789062 C-14.87363241 44.22517883 -14.94274058 47.61220357 -15 51 C-17.64590014 51.02684679 -20.29153096 51.04676357 -22.9375 51.0625 C-23.69224609 51.07087891 -24.44699219 51.07925781 -25.22460938 51.08789062 C-27.14994313 51.09652441 -29.07535581 51.05224333 -31 51 C-32 50 -32 50 -32.12025452 48.05747986 C-32.11803391 47.20698563 -32.11581329 46.35649139 -32.11352539 45.48022461 C-32.11344986 44.51930405 -32.11337433 43.55838348 -32.11329651 42.56834412 C-32.10813522 41.523564 -32.10297394 40.47878387 -32.09765625 39.40234375 C-32.0962413 38.33834854 -32.09482635 37.27435333 -32.09336853 36.17811584 C-32.08775064 32.76454917 -32.07519511 29.351047 -32.0625 25.9375 C-32.05748731 23.62955824 -32.052924 21.32161545 -32.04882812 19.01367188 C-32.03777539 13.34242289 -32.02049877 7.6712224 -32 2 C-27.05 2 -22.1 2 -17 2 C-16.67 3.32 -16.34 4.64 -16 6 C-15.175 5.38125 -14.35 4.7625 -13.5 4.125 C-9.47409986 1.42189562 -4.88731958 0 0 0 Z " fill="#2147AB" transform="translate(325,209)"/>
<path d="M0 0 C0.72960937 -0.00773438 1.45921875 -0.01546875 2.2109375 -0.0234375 C7.04221499 -0.00618294 11.03981766 0.72563859 15.625 2.25 C16.97427078 8.26038803 16.12267278 10.90151303 13.625 16.25 C12.45582031 16.22679687 11.28664063 16.20359375 10.08203125 16.1796875 C8.53386058 16.16092179 6.98568297 16.14272245 5.4375 16.125 C4.28411133 16.09986328 4.28411133 16.09986328 3.10742188 16.07421875 C-2.91179896 15.9753614 -2.91179896 15.9753614 -8.375 18.25 C-9.26886164 20.79775306 -9.26886164 20.79775306 -9.375 23.25 C-8.51950562 23.24214478 -8.51950562 23.24214478 -7.64672852 23.23413086 C-5.07699677 23.21341779 -2.50728253 23.2003581 0.0625 23.1875 C1.40924805 23.17493164 1.40924805 23.17493164 2.78320312 23.16210938 C3.63720703 23.15888672 4.49121094 23.15566406 5.37109375 23.15234375 C6.16185303 23.14710693 6.9526123 23.14187012 7.76733398 23.13647461 C9.625 23.25 9.625 23.25 10.625 24.25 C10.69758946 26.43639453 10.70873783 28.62500389 10.6875 30.8125 C10.67847656 32.01003906 10.66945313 33.20757812 10.66015625 34.44140625 C10.64855469 35.36824219 10.63695312 36.29507813 10.625 37.25 C6.34615394 39.3603435 2.48635858 39.49128739 -2.1875 39.375 C-3.22680664 39.36146484 -3.22680664 39.36146484 -4.28710938 39.34765625 C-5.98322395 39.32426157 -7.67915871 39.28839641 -9.375 39.25 C-9.36714478 40.69620728 -9.36714478 40.69620728 -9.35913086 42.17163086 C-9.34107882 45.73672564 -9.32956726 49.30181636 -9.32006836 52.86694336 C-9.3150286 54.41219766 -9.3081968 55.95744716 -9.29956055 57.50268555 C-9.28747924 59.71925029 -9.28176827 61.93575218 -9.27734375 64.15234375 C-9.27218246 64.8471434 -9.26702118 65.54194305 -9.26170349 66.25779724 C-9.26150723 67.9222933 -9.31310871 69.58665499 -9.375 71.25 C-10.375 72.25 -10.375 72.25 -13.75390625 72.34765625 C-15.14847077 72.34098369 -16.54301743 72.32902532 -17.9375 72.3125 C-18.64841797 72.30798828 -19.35933594 72.30347656 -20.09179688 72.29882812 C-21.85290013 72.28700864 -23.61396036 72.26907263 -25.375 72.25 C-26.2040649 68.11081673 -26.3976356 64.56734661 -25.9375 60.375 C-25.83566406 59.40820312 -25.73382813 58.44140625 -25.62890625 57.4453125 C-25.54511719 56.72085938 -25.46132813 55.99640625 -25.375 55.25 C-25.045 55.25 -24.715 55.25 -24.375 55.25 C-24.375 60.2 -24.375 65.15 -24.375 70.25 C-19.755 70.25 -15.135 70.25 -10.375 70.25 C-10.375 59.36 -10.375 48.47 -10.375 37.25 C-4.105 37.25 2.165 37.25 8.625 37.25 C8.625 33.29 8.625 29.33 8.625 25.25 C1.1922556 25.13239532 1.1922556 25.13239532 -6.1875 25.8125 C-9.375 26.25 -9.375 26.25 -12.5 25.6875 C-15.85523951 25.17692007 -17.36672472 25.78651473 -20.375 27.25 C-21.365 27.58 -22.355 27.91 -23.375 28.25 C-23.705 29.9 -24.035 31.55 -24.375 33.25 C-25.035 32.92 -25.695 32.59 -26.375 32.25 C-27.73099891 28.03393443 -27.16475269 24.38339248 -26.5 20.0625 C-26.31695312 18.83144531 -26.13390625 17.60039062 -25.9453125 16.33203125 C-25.375 13.25 -25.375 13.25 -24.375 11.25 C-23.715 11.25 -23.055 11.25 -22.375 11.25 C-22.189375 10.5075 -22.00375 9.765 -21.8125 9 C-19.87337423 5.29036809 -17.04579857 3.93459494 -13.375 2.25 C-12.64667969 1.88777344 -11.91835938 1.52554688 -11.16796875 1.15234375 C-7.43942117 -0.05226393 -3.87433393 -0.04063987 0 0 Z " fill="#89B65B" transform="translate(425.375,188.75)"/>
<path d="M0 0 C0.02526838 6.96003447 0.04283222 13.9200572 0.05493164 20.88012695 C0.05997341 23.24992312 0.06680665 25.61971615 0.07543945 27.98950195 C0.0875119 31.38754039 0.09322971 34.78553785 0.09765625 38.18359375 C0.10281754 39.25024765 0.10797882 40.31690155 0.11329651 41.4158783 C0.11340981 42.88729027 0.11340981 42.88729027 0.11352539 44.38842773 C0.115746 45.25668686 0.11796661 46.12494598 0.12025452 47.01951599 C0 49 0 49 -1 50 C-3.51136104 50.09975032 -5.98903415 50.13882183 -8.5 50.125 C-9.20253906 50.12886719 -9.90507812 50.13273437 -10.62890625 50.13671875 C-15.87338622 50.12661378 -15.87338622 50.12661378 -17 49 C-17.09822744 47.53194708 -17.1279837 46.0592254 -17.12939453 44.58789062 C-17.13412277 43.18138245 -17.13412277 43.18138245 -17.13894653 41.74645996 C-17.1369223 40.72669067 -17.13489807 39.70692139 -17.1328125 38.65625 C-17.13376923 37.61682251 -17.13472595 36.57739502 -17.13571167 35.50646973 C-17.13639363 33.30395446 -17.13453827 31.10143721 -17.13037109 28.89892578 C-17.12502308 25.51460281 -17.13031559 22.13041256 -17.13671875 18.74609375 C-17.13605797 16.61197887 -17.13477681 14.47786408 -17.1328125 12.34375 C-17.13483673 11.32398071 -17.13686096 10.30421143 -17.13894653 9.25354004 C-17.13579437 8.31586792 -17.13264221 7.3781958 -17.12939453 6.41210938 C-17.12859894 5.58239624 -17.12780334 4.75268311 -17.12698364 3.89782715 C-17 2 -17 2 -16 1 C-13.49477056 0.76293974 -11.0107988 0.57801259 -8.5 0.4375 C-7.44619141 0.37272461 -7.44619141 0.37272461 -6.37109375 0.30664062 C-1.3188244 0 -1.3188244 0 0 0 Z " fill="#1C42AB" transform="translate(280,210)"/>
<path d="M0 0 C7.88400881 0.86933937 14.88232349 2.69641743 21 8 C21.6856912 9.65893032 22.35487074 11.32487897 23 13 C23.99 13.33 24.98 13.66 26 14 C31.13411345 26.19137307 31.63630581 38.61345165 27 51 C25.28620987 53.97450931 23.30773463 56.46798426 21 59 C20.236875 59.9075 19.47375 60.815 18.6875 61.75 C15.18529079 64.68208213 11.40332871 66.73012618 7 68 C6.01 67.67 5.02 67.34 4 67 C6 64 6 64 8.1640625 63.48828125 C8.97617188 63.43027344 9.78828125 63.37226563 10.625 63.3125 C11.44226563 63.24675781 12.25953125 63.18101562 13.1015625 63.11328125 C13.72804687 63.07589844 14.35453125 63.03851563 15 63 C14.72965366 60.56282742 14.72965366 60.56282742 14 58 C13.01 57.34 12.02 56.68 11 56 C11.41317222 51.17965738 13.38019915 49.09007389 17 46 C17.66 46 18.32 46 19 46 C19 45.34 19 44.68 19 44 C19.66 44 20.32 44 21 44 C20.67 45.65 20.34 47.3 20 49 C20.66 49 21.32 49 22 49 C22 47.35 22 45.7 22 44 C23.485 43.505 23.485 43.505 25 43 C23.35 43 21.7 43 20 43 C18.768606 39.30581799 19.35567236 36.7943739 20 33 C19.01 33.495 19.01 33.495 18 34 C17.34 33.67 16.68 33.34 16 33 C15.67 35.64 15.34 38.28 15 41 C14.34 40.67 13.68 40.34 13 40 C12.62564792 37.59047988 12.34102567 35.23704344 12.125 32.8125 C11.53509684 26.41769871 10.31794131 21.84612397 5.296875 17.5390625 C4.78640625 17.23742187 4.2759375 16.93578125 3.75 16.625 C2.8425 16.08875 1.935 15.5525 1 15 C2.6875 14.25 2.6875 14.25 5 14 C7.75 15.9375 7.75 15.9375 10 18 C10.33 17.34 10.66 16.68 11 16 C10.67 15.67 10.34 15.34 10 15 C10 14.01 10 13.02 10 12 C11.65 11.34 13.3 10.68 15 10 C15 9.01 15 8.02 15 7 C14.01 6.7525 13.02 6.505 12 6.25 C7.71904804 5.04187859 3.90940785 3.09178706 0 1 C0 0.67 0 0.34 0 0 Z M19 49 C18.67 49.66 18.34 50.32 18 51 C18.66 51 19.32 51 20 51 C19.67 50.34 19.34 49.68 19 49 Z " fill="#1C43A8" transform="translate(172,191)"/>
<path d="M0 0 C9.88242973 -0.30459544 19.2410792 0.59856169 29 2 C30.3255128 2.1888585 31.65103327 2.37766314 32.9765625 2.56640625 C33.97429687 2.70949219 34.97203125 2.85257813 36 3 C36 3.66 36 4.32 36 5 C37.155 5.144375 38.31 5.28875 39.5 5.4375 C47.33913972 7.11102421 54.19515949 11.94214419 61 16 C61 16.66 61 17.32 61 18 C61.556875 18.061875 62.11375 18.12375 62.6875 18.1875 C65.98120783 19.3447487 67.59504754 21.48318929 70 24 C72.29933066 26.04065596 74.64447835 28.02462017 77 30 C76.67 31.32 76.34 32.64 76 34 C75.16339844 33.3709375 74.32679688 32.741875 73.46484375 32.09375 C56.3069981 19.39365326 37.89963012 9.59445129 16 10 C15.67 9.67 15.34 9.34 15 9 C13.58429877 8.91348389 12.164405 8.89295096 10.74609375 8.90234375 C9.46508789 8.90717773 9.46508789 8.90717773 8.15820312 8.91210938 C6.81145508 8.92467773 6.81145508 8.92467773 5.4375 8.9375 C4.53580078 8.94201172 3.63410156 8.94652344 2.70507812 8.95117188 C0.46998686 8.96299775 -1.76497437 8.9794778 -4 9 C-4 8.67 -4 8.34 -4 8 C-2.02 7.67 -0.04 7.34 2 7 C2 6.34 2 5.68 2 5 C2.99 5 3.98 5 5 5 C5.33 4.01 5.66 3.02 6 2 C4.68 2.33 3.36 2.66 2 3 C2 2.34 2 1.68 2 1 C1.34 0.67 0.68 0.34 0 0 Z " fill="#395BAC" transform="translate(316,166)"/>
<path d="M0 0 C1.58206057 0.00667536 3.16410534 0.0186375 4.74609375 0.03515625 C5.55240234 0.03966797 6.35871094 0.04417969 7.18945312 0.04882812 C9.18753131 0.06065107 11.18557158 0.07858711 13.18359375 0.09765625 C13.01859375 0.69578125 12.85359375 1.29390625 12.68359375 1.91015625 C12.07218135 4.21109961 12.07218135 4.21109961 12.18359375 7.09765625 C13.50359375 6.43765625 14.82359375 5.77765625 16.18359375 5.09765625 C17.30859375 9.84765625 17.30859375 9.84765625 16.18359375 12.09765625 C11.25683598 13.31783458 6.34702603 13.2156644 1.30859375 13.16015625 C0.52484375 13.15564453 -0.25890625 13.15113281 -1.06640625 13.14648438 C-2.98310639 13.13479718 -4.89976673 13.11686533 -6.81640625 13.09765625 C-7.00783203 14.01611328 -7.00783203 14.01611328 -7.203125 14.953125 C-8.05066583 17.91681874 -9.39761266 19.23172977 -11.81640625 21.09765625 C-13.87890625 21.22265625 -13.87890625 21.22265625 -15.81640625 20.09765625 C-18.81640625 15.06194196 -18.81640625 15.06194196 -18.81640625 12.09765625 C-18.15640625 12.09765625 -17.49640625 12.09765625 -16.81640625 12.09765625 C-16.67203125 11.49953125 -16.52765625 10.90140625 -16.37890625 10.28515625 C-15.92916235 8.53615221 -15.38748284 6.81088602 -14.81640625 5.09765625 C-12.17640625 5.09765625 -9.53640625 5.09765625 -6.81640625 5.09765625 C-6.50703125 4.45828125 -6.19765625 3.81890625 -5.87890625 3.16015625 C-4.30773137 0.11022854 -4.30773137 0.11022854 0 0 Z " fill="#6CB029" transform="translate(421.81640625,190.90234375)"/>
<path d="M0 0 C-0.66 0.66 -1.32 1.32 -2 2 C-1.67 2.99 -1.34 3.98 -1 5 C-1.640625 7.12109375 -1.640625 7.12109375 -3 9 C-5.171875 9.72265625 -5.171875 9.72265625 -7.75 10.0625 C-12.01792004 10.74413903 -15.14159639 12.02593304 -19 14 C-21.6875 14.5 -21.6875 14.5 -24 14 C-26.54200808 10.8224899 -27.28577756 7.93483657 -28 4 C-19.79498607 -3.12086795 -10.01733522 -1.02924807 0 0 Z " fill="#1B41A5" transform="translate(238,211)"/>
<path d="M0 0 C7.88400881 0.86933937 14.88232349 2.69641743 21 8 C21.6856912 9.65893032 22.35487074 11.32487897 23 13 C23.99 13.33 24.98 13.66 26 14 C25.67 14.66 25.34 15.32 25 16 C23.68 15.67 22.36 15.34 21 15 C21 16.093125 21 17.18625 21 18.3125 C21 20.54166667 21 22.77083333 21 25 C20.01 25.66 19.02 26.32 18 27 C18 26.34 18 25.68 18 25 C17.34 25 16.68 25 16 25 C15.34 29.29 14.68 33.58 14 38 C13.67 38 13.34 38 13 38 C12.90203125 37.13117188 12.8040625 36.26234375 12.703125 35.3671875 C11.55582024 25.37076821 11.55582024 25.37076821 5.40625 17.76171875 C3.97706808 16.78084154 2.49233141 15.8818322 1 15 C2.6875 14.25 2.6875 14.25 5 14 C7.75 15.9375 7.75 15.9375 10 18 C10.33 17.34 10.66 16.68 11 16 C10.67 15.67 10.34 15.34 10 15 C10 14.01 10 13.02 10 12 C11.65 11.34 13.3 10.68 15 10 C15 9.01 15 8.02 15 7 C14.01 6.7525 13.02 6.505 12 6.25 C7.71904804 5.04187859 3.90940785 3.09178706 0 1 C0 0.67 0 0.34 0 0 Z " fill="#2B4EAD" transform="translate(172,191)"/>
<path d="M0 0 C-0.33 1.32 -0.66 2.64 -1 4 C-1.99 3.67 -2.98 3.34 -4 3 C-3.67 3.99 -3.34 4.98 -3 6 C-5.31 6 -7.62 6 -10 6 C-10 6.66 -10 7.32 -10 8 C-13.45776327 8.66964666 -16.91629981 9.33521087 -20.375 10 C-21.35984375 10.19078125 -22.3446875 10.3815625 -23.359375 10.578125 C-24.30039062 10.75859375 -25.24140625 10.9390625 -26.2109375 11.125 C-27.08024902 11.29257813 -27.94956055 11.46015625 -28.84521484 11.6328125 C-31 12 -31 12 -33 12 C-32.67 9.69 -32.34 7.38 -32 5 C-30.68 5 -29.36 5 -28 5 C-28 4.34 -28 3.68 -28 3 C-19.25304154 -0.1536653 -9.20726674 -3.06908891 0 0 Z " fill="#3257AB" transform="translate(322,168)"/>
<path d="M0 0 C0.90136124 4.32501905 1.47973634 8.61492059 2 13 C-0.4375 12.625 -0.4375 12.625 -3 12 C-3.33 11.34 -3.66 10.68 -4 10 C-4.99 10 -5.98 10 -7 10 C-7 10.99 -7 11.98 -7 13 C-7.3062434 14.33981486 -7.63451555 15.67511887 -8 17 C-10.3203125 16.828125 -10.3203125 16.828125 -13 16 C-14.6171875 13.671875 -14.6171875 13.671875 -15.875 10.75 C-16.30554688 9.79609375 -16.73609375 8.8421875 -17.1796875 7.859375 C-18.06936197 4.75822398 -17.90406496 3.05819507 -17 0 C-11.23073111 -1.40333568 -5.81856895 -0.67296616 0 0 Z " fill="#1A41A6" transform="translate(351,211)"/>
<path d="M0 0 C0.99 0.99 1.98 1.98 3 3 C0.71578847 10.99474037 -3.96333263 18.12806467 -11.28125 22.30078125 C-17.41080423 25.19639859 -17.41080423 25.19639859 -21 24 C-19 21 -19 21 -16.8359375 20.48828125 C-16.02382812 20.43027344 -15.21171875 20.37226563 -14.375 20.3125 C-13.55773437 20.24675781 -12.74046875 20.18101562 -11.8984375 20.11328125 C-10.95871094 20.05720703 -10.95871094 20.05720703 -10 20 C-10.27034634 17.56282742 -10.27034634 17.56282742 -11 15 C-11.99 14.34 -12.98 13.68 -14 13 C-13.58682778 8.17965738 -11.61980085 6.09007389 -8 3 C-7.34 3 -6.68 3 -6 3 C-6 2.34 -6 1.68 -6 1 C-5.34 1 -4.68 1 -4 1 C-4.33 2.65 -4.66 4.3 -5 6 C-4.34 6 -3.68 6 -3 6 C-3 4.35 -3 2.7 -3 1 C-2.01 0.67 -1.02 0.34 0 0 Z M-6 6 C-6.33 6.66 -6.66 7.32 -7 8 C-6.34 8 -5.68 8 -5 8 C-5.33 7.34 -5.66 6.68 -6 6 Z " fill="#1E45AA" transform="translate(197,234)"/>
<path d="M0 0 C-0.45375 0.391875 -0.9075 0.78375 -1.375 1.1875 C-3.27642919 3.30832487 -4.06204028 5.33042235 -5 8 C-1.535 7.505 -1.535 7.505 2 7 C1.34 7.66 0.68 8.32 0 9 C-0.99 9 -1.98 9 -3 9 C-3.33 9.66 -3.66 10.32 -4 11 C-5.7421875 11.9296875 -5.7421875 11.9296875 -7.875 12.875 C-11.11118506 14.43789727 -13.3757605 15.64323838 -15 19 C-14.67 19.99 -14.34 20.98 -14 22 C-14.66 22 -15.32 22 -16 22 C-16 21.34 -16 20.68 -16 20 C-16.66 20 -17.32 20 -18 20 C-18 19.01 -18 18.02 -18 17 C-19.32 16.67 -20.64 16.34 -22 16 C-22.33 16.66 -22.66 17.32 -23 18 C-23.66 17.34 -24.32 16.68 -25 16 C-19.62413724 8.64972947 -9.82617344 -1.02279872 0 0 Z " fill="#3B5DB2" transform="translate(294,172)"/>
<path d="M0 0 C1.32 0.33 2.64 0.66 4 1 C4 13.21 4 25.42 4 38 C2.35 38 0.7 38 -1 38 C-2.56040631 34.87918739 -2.02256399 31.59837292 -1.9140625 28.18359375 C-1.89282318 27.41193375 -1.87158386 26.64027374 -1.84970093 25.8452301 C-1.80342567 24.21355791 -1.75449628 22.58195916 -1.703125 20.95043945 C-1.62521231 18.44432919 -1.55811437 15.93809164 -1.4921875 13.43164062 C-1.44596102 11.84893926 -1.39910741 10.26625606 -1.3515625 8.68359375 C-1.33171295 7.92944687 -1.3118634 7.17529999 -1.29141235 6.39830017 C-1.11505245 1.11505245 -1.11505245 1.11505245 0 0 Z " fill="#2C50A0" transform="translate(318,125)"/>
<path d="M0 0 C1.9375 0.3125 1.9375 0.3125 4 1 C4.33 1.99 4.66 2.98 5 4 C3.2983769 6.30446688 1.59726431 8.3811717 -0.3125 10.5 C-1.33064468 11.65517798 -2.34761432 12.8113929 -3.36328125 13.96875 C-3.82001221 14.47857422 -4.27674316 14.98839844 -4.74731445 15.51367188 C-6.20756046 17.18993808 -6.20756046 17.18993808 -8 20 C-8.66 20 -9.32 20 -10 20 C-10.268125 20.5775 -10.53625 21.155 -10.8125 21.75 C-12.01719859 24.0325868 -13.40798115 25.9737942 -15 28 C-16.32 27.67 -17.64 27.34 -19 27 C-18.46274129 23.11993866 -17.50907662 20.94487638 -14.98046875 17.96875 C-14.06491211 16.87626953 -14.06491211 16.87626953 -13.13085938 15.76171875 C-12.48955078 15.01535156 -11.84824219 14.26898438 -11.1875 13.5 C-9.93084638 12.01053747 -8.67433238 10.52095714 -7.41796875 9.03125 C-6.53117432 7.98904297 -6.53117432 7.98904297 -5.62646484 6.92578125 C-3.7061726 4.65209989 -1.84151094 2.33783757 0 0 Z " fill="#2046A0" transform="translate(395,153)"/>
<path d="M0 0 C1.46218726 4.01944223 2.91905692 8.04079219 4.375 12.0625 C4.99375 13.7630957 4.99375 13.7630957 5.625 15.49804688 C7.59961707 20.96009249 9.51629476 26.38311586 11 32 C8.525 32.495 8.525 32.495 6 33 C5.505 31.515 5.505 31.515 5 30 C4.34 29.67 3.68 29.34 3 29 C2.63856701 27.33920047 2.31155803 25.67087417 2 24 C1.22078398 21.90399036 0.40548294 19.82118657 -0.4375 17.75 C-2.498618 12.51380716 -3.96990205 7.52507083 -5 2 C-2 0 -2 0 0 0 Z " fill="#355AAA" transform="translate(282,136)"/>
<path d="M0 0 C0 16.17 0 32.34 0 49 C-0.66 49 -1.32 49 -2 49 C-2.33 34.15 -2.66 19.3 -3 4 C-7.29 3.67 -11.58 3.34 -16 3 C-16 18.18 -16 33.36 -16 49 C-16.33 49 -16.66 49 -17 49 C-17.02526945 42.3247966 -17.04283268 35.64960543 -17.05493164 28.97436523 C-17.05997325 26.70157409 -17.06680637 24.4287862 -17.07543945 22.15600586 C-17.08751261 18.89696449 -17.09322987 15.63796583 -17.09765625 12.37890625 C-17.10281754 11.35599991 -17.10797882 10.33309357 -17.11329651 9.27919006 C-17.11337204 8.33829025 -17.11344757 7.39739044 -17.11352539 6.42797852 C-17.115746 5.59524918 -17.11796661 4.76251984 -17.12025452 3.90455627 C-17 2 -17 2 -16 1 C-13.49477056 0.76293974 -11.0107988 0.57801259 -8.5 0.4375 C-7.44619141 0.37272461 -7.44619141 0.37272461 -6.37109375 0.30664062 C-1.3188244 0 -1.3188244 0 0 0 Z " fill="#6277B5" transform="translate(280,210)"/>
<path d="M0 0 C0.99 0.33 1.98 0.66 3 1 C4.31223496 4.93670488 3.24296256 7.12488144 2 11 C1.34 11 0.68 11 0 11 C-0.2475 12.27875 -0.495 13.5575 -0.75 14.875 C-1.91320979 20.07232035 -3.39535481 25.32832322 -6 30 C-9 31 -9 31 -12 30 C-11.71125 29.34 -11.4225 28.68 -11.125 28 C-10.05072 25.13525334 -9.34296583 22.29220022 -8.63671875 19.3203125 C-7.62519597 15.63414972 -6.25481364 12.08818697 -4.90234375 8.515625 C-3.95966132 6.08478785 -3.95966132 6.08478785 -3.56640625 3.796875 C-3 2 -3 2 0 0 Z " fill="#4A69AC" transform="translate(358,136)"/>
<path d="M0 0 C2.64212018 0.27811791 4.49923518 0.64760994 6.6875 2.1875 C8.44931529 4.62048302 9.1714857 7.13206588 10 10 C10.66 10 11.32 10 12 10 C13.34919532 11.65385233 14.68133728 13.321702 16 15 C16.99 15.66 17.98 16.32 19 17 C19.70052461 19.663063 19.77744818 22.24035737 20 25 C16 25 16 25 13 23 C13 22.01 13 21.02 13 20 C12.01 19.67 11.02 19.34 10 19 C8.18744626 16.76181463 6.51831797 14.54355386 4.875 12.1875 C4.41996094 11.55779297 3.96492187 10.92808594 3.49609375 10.27929688 C1.33157343 7.21878076 -0.38561073 4.77047807 -1 1 C-0.67 0.67 -0.34 0.34 0 0 Z " fill="#3D5EA5" transform="translate(249,157)"/>
<path d="M0 0 C0.66 0 1.32 0 2 0 C3.46845421 5.47332932 2.44038726 8.11922548 0 13 C-4.29 13 -8.58 13 -13 13 C-12.67 13.99 -12.34 14.98 -12 16 C-12.33 18.31 -12.66 20.62 -13 23 C-8.05 23.33 -3.1 23.66 2 24 C2.33 22.68 2.66 21.36 3 20 C3.66 20 4.32 20 5 20 C5.33 19.34 5.66 18.68 6 18 C6.99 18.33 7.98 18.66 9 19 C9 18.34 9 17.68 9 17 C9.99 16.34 10.98 15.68 12 15 C13.20450304 12.44816596 13.20450304 12.44816596 14 10 C14.66 10 15.32 10 16 10 C14.23547799 17.94034905 14.23547799 17.94034905 10.94140625 20.765625 C10.15636719 21.25546875 9.37132812 21.7453125 8.5625 22.25 C7.78003906 22.75015625 6.99757813 23.2503125 6.19140625 23.765625 C-0.12943786 27.32602917 -7.1380779 26.14365368 -14 25 C-14.19491452 23.54263913 -14.38069358 22.08405407 -14.5625 20.625 C-14.66691406 19.81289063 -14.77132813 19.00078125 -14.87890625 18.1640625 C-15 16 -15 16 -14 14 C-14.66 14 -15.32 14 -16 14 C-15.67 13.01 -15.34 12.02 -15 11 C-10.71 11 -6.42 11 -2 11 C-2.33 10.01 -2.66 9.02 -3 8 C-2.505 7.608125 -2.01 7.21625 -1.5 6.8125 C0.45593143 4.44908285 0.24207973 2.98564997 0 0 Z " fill="#93B764" transform="translate(457,255)"/>
<path d="M0 0 C1.8125 0.0625 1.8125 0.0625 4 1 C5.19523499 3.33850323 6.0894504 5.548199 7 8 C7.85046672 10.00157614 8.70491046 12.00146532 9.5625 14 C11.35406139 18.29543033 12.87193808 22.48775232 14 27 C14.66 27 15.32 27 16 27 C16.22042969 26.06994141 16.22042969 26.06994141 16.4453125 25.12109375 C17.93913742 19.22306086 19.80178816 13.54181882 22 7.875 C22.2489502 7.21169678 22.49790039 6.54839355 22.75439453 5.86499023 C23.41504333 4.20558062 24.1995717 2.59668771 25 1 C25.99 0.67 26.98 0.34 28 0 C26.75970277 5.37462133 24.96232653 10.13231789 22.375 15 C20.33248953 18.94845774 19.78156032 21.5219866 20 26 C18.8125 27.9375 18.8125 27.9375 17 29 C14.3125 28.6875 14.3125 28.6875 12 28 C11.731875 27.071875 11.46375 26.14375 11.1875 25.1875 C10.29235115 22.02401689 10.29235115 22.02401689 8.3125 20.5 C7.879375 20.005 7.44625 19.51 7 19 C7.3125 15.8125 7.3125 15.8125 8 13 C7.01 12.67 6.02 12.34 5 12 C3 9 3 9 3.0625 6.4375 C3.041875 5.633125 3.02125 4.82875 3 4 C2.01 3.34 1.02 2.68 0 2 C0 1.34 0 0.68 0 0 Z " fill="#91BE67" transform="translate(452,211)"/>
<path d="M0 0 C0.66 0.33 1.32 0.66 2 1 C2 12.22 2 23.44 2 35 C-2.95 34.67 -7.9 34.34 -13 34 C-13 32.35 -13 30.7 -13 29 C-8.545 29.99 -8.545 29.99 -4 31 C-2.66666667 28 -2.66666667 28 -4 25 C-2.68 25.33 -1.36 25.66 0 26 C0 17.42 0 8.84 0 0 Z " fill="#1D3D96" transform="translate(253,226)"/>
<path d="M0 0 C2.64 0.33 5.28 0.66 8 1 C9.94522377 4.45817559 10.08254219 6.56877603 9.125 10.3125 C8.75375 11.529375 8.3825 12.74625 8 14 C7.2575 13.814375 6.515 13.62875 5.75 13.4375 C3.00822361 13.0013083 1.60701799 13.24797558 -1 14 C-1.41846009 12.42249576 -1.80896389 10.83755752 -2.1875 9.25 C-2.40792969 8.36828125 -2.62835938 7.4865625 -2.85546875 6.578125 C-3 4 -3 4 -1.55078125 1.671875 C-1.03902344 1.12015625 -0.52726562 0.5684375 0 0 Z " fill="#6AAF2A" transform="translate(480,212)"/>
<path d="M0 0 C4.95 0 9.9 0 15 0 C14.67 0.99 14.34 1.98 14 3 C10.04 2.67 6.08 2.34 2 2 C2 16.85 2 31.7 2 47 C2.99 47.33 3.98 47.66 5 48 C3.35 48 1.7 48 0 48 C0 32.16 0 16.32 0 0 Z " fill="#355096" transform="translate(293,211)"/>
<path d="M0 0 C1.97909398 -0.02686553 3.95828971 -0.04633375 5.9375 -0.0625 C7.03964844 -0.07410156 8.14179688 -0.08570313 9.27734375 -0.09765625 C12 0 12 0 13 1 C13.04063832 2.66617115 13.042721 4.33388095 13 6 C12.34 6 11.68 6 11 6 C10.88527344 6.85078125 10.77054687 7.7015625 10.65234375 8.578125 C9.9659077 12.17883145 8.88821729 15.33539285 7.5625 18.75 C7.13066406 19.87921875 6.69882812 21.0084375 6.25390625 22.171875 C5 25 5 25 3 27 C3 25.68 3 24.36 3 23 C2.34 23 1.68 23 1 23 C0.875 15.25 0.875 15.25 2 13 C4.475 13.99 4.475 13.99 7 15 C6.979375 14.071875 6.95875 13.14375 6.9375 12.1875 C7 9 7 9 8 6 C7.61067144 3.85744207 7.61067144 3.85744207 7 2 C4.69 1.67 2.38 1.34 0 1 C0 0.67 0 0.34 0 0 Z " fill="#7DB14C" transform="translate(481,211)"/>
<path d="M0 0 C4.75 0.875 4.75 0.875 7 2 C7 2.66 7 3.32 7 4 C7.556875 4.061875 8.11375 4.12375 8.6875 4.1875 C11.98120783 5.3447487 13.59504754 7.48318929 16 10 C18.29933066 12.04065596 20.64447835 14.02462017 23 16 C22.67 17.32 22.34 18.64 22 20 C21.09378906 19.33613281 20.18757813 18.67226562 19.25390625 17.98828125 C12.70934877 13.2313825 6.25084581 8.64460504 -1 5 C-1 4.34 -1 3.68 -1 3 C-0.01 3 0.98 3 2 3 C2 2.34 2 1.68 2 1 C1.34 0.67 0.68 0.34 0 0 Z " fill="#24479C" transform="translate(370,180)"/>
<path d="M0 0 C0.66 0 1.32 0 2 0 C2 0.66 2 1.32 2 2 C2.66 2 3.32 2 4 2 C4 4.97 4 7.94 4 11 C-4.24615385 14.2 -4.24615385 14.2 -8.0625 13.1875 C-8.701875 12.795625 -9.34125 12.40375 -10 12 C-9.6875 9.625 -9.6875 9.625 -9 7 C-6 5 -6 5 -4 5 C-2.19363264 3.41039672 -1.08073852 2.16147703 0 0 Z " fill="#1944A4" transform="translate(276,192)"/>
<path d="M0 0 C3.62447925 0 7.1393962 0.2111517 10.75 0.5 C11.92046875 0.5928125 13.0909375 0.685625 14.296875 0.78125 C15.18890625 0.8534375 16.0809375 0.925625 17 1 C15.68 1.33 14.36 1.66 13 2 C13 2.66 13 3.32 13 4 C15.475 4.495 15.475 4.495 18 5 C18.33 6.32 18.66 7.64 19 9 C17.33388095 9.042721 15.66617115 9.04063832 14 9 C13.67 8.67 13.34 8.34 13 8 C12.2575 8.350625 11.515 8.70125 10.75 9.0625 C7.8677274 10.04509293 6.78823655 10.0326802 4 9 C4.66 7.68 5.32 6.36 6 5 C3.69 5.33 1.38 5.66 -1 6 C-1 2 -1 2 0 0 Z " fill="#1B42A7" transform="translate(218,250)"/>
<path d="M0 0 C1.98 0 3.96 0 6 0 C5.01 0.33 4.02 0.66 3 1 C2.67 15.52 2.34 30.04 2 45 C2.99 45 3.98 45 5 45 C5 44.34 5 43.68 5 43 C5.66 43 6.32 43 7 43 C7 43.66 7 44.32 7 45 C8.32 45.33 9.64 45.66 11 46 C7.37 46 3.74 46 0 46 C0 30.82 0 15.64 0 0 Z " fill="#173794" transform="translate(264,213)"/>
<path d="M0 0 C0.625 2.5625 0.625 2.5625 1 5 C-0.24716797 5.72316406 -0.24716797 5.72316406 -1.51953125 6.4609375 C-2.60621094 7.09257812 -3.69289063 7.72421875 -4.8125 8.375 C-5.89144531 9.00148437 -6.97039062 9.62796875 -8.08203125 10.2734375 C-10.08831093 11.46055346 -12.06034059 12.70689373 -14 14 C-14.99 14 -15.98 14 -17 14 C-17.30859375 11.73046875 -17.30859375 11.73046875 -17 9 C-14.84765625 7.05078125 -14.84765625 7.05078125 -12.0625 5.3125 C-8.41673654 3.22179277 -8.41673654 3.22179277 -6 0 C-2.49056604 -1.24528302 -2.49056604 -1.24528302 0 0 Z " fill="#496AB2" transform="translate(407,175)"/>
<path d="M0 0 C0.99 0.33 1.98 0.66 3 1 C4.64387328 4.57584805 3.67325091 7.90262995 2.875 11.625 C2.64554687 12.77226562 2.41609375 13.91953125 2.1796875 15.1015625 C1 18 1 18 -1.6171875 19.3984375 C-2.40351563 19.59695312 -3.18984375 19.79546875 -4 20 C-3.85870713 17.58299013 -3.71213513 15.16649571 -3.5625 12.75 C-3.52318359 12.06808594 -3.48386719 11.38617188 -3.44335938 10.68359375 C-3.00132444 3.67904024 -3.00132444 3.67904024 -2 1 C-1.34 0.67 -0.68 0.34 0 0 Z " fill="#1D459D" transform="translate(336,145)"/>
<path d="M0 0 C3.125 0.375 3.125 0.375 6 1 C7 5.75 7 5.75 7 8 C7.99 8.33 8.98 8.66 10 9 C9.67 10.32 9.34 11.64 9 13 C9.66 13 10.32 13 11 13 C10.67 13.66 10.34 14.32 10 15 C8.35 14.67 6.7 14.34 5 14 C4.67 13.01 4.34 12.02 4 11 C3.34 10.67 2.68 10.34 2 10 C0.9296875 8.15234375 0.9296875 8.15234375 -0.125 5.9375 C-0.47820312 5.20402344 -0.83140625 4.47054687 -1.1953125 3.71484375 C-1.46085937 3.14894531 -1.72640625 2.58304688 -2 2 C-1.34 1.34 -0.68 0.68 0 0 Z " fill="#3657A7" transform="translate(270,160)"/>
<path d="M0 0 C2.04159095 -0.0272616 4.08328963 -0.04651345 6.125 -0.0625 C7.26195312 -0.07410156 8.39890625 -0.08570313 9.5703125 -0.09765625 C12.8129156 -0.005327 15.81932612 0.38610094 19 1 C19 1.33 19 1.66 19 2 C17.35 2 15.7 2 14 2 C14 3.32 14 4.64 14 6 C12.35 6 10.7 6 9 6 C10.65 6.33 12.3 6.66 14 7 C14 7.33 14 7.66 14 8 C8.06 8.33 2.12 8.66 -4 9 C-4 8.67 -4 8.34 -4 8 C-2.02 7.67 -0.04 7.34 2 7 C2 6.34 2 5.68 2 5 C2.99 5 3.98 5 5 5 C5.33 4.01 5.66 3.02 6 2 C4.68 2.33 3.36 2.66 2 3 C2 2.34 2 1.68 2 1 C1.34 0.67 0.68 0.34 0 0 Z " fill="#385BB3" transform="translate(316,166)"/>
<path d="M0 0 C0.721875 0.350625 1.44375 0.70125 2.1875 1.0625 C5.40061557 2.13353852 6.78317338 1.88462732 10 1 C10.928125 0.814375 11.85625 0.62875 12.8125 0.4375 C13.534375 0.293125 14.25625 0.14875 15 0 C15 3 15 3 14 5 C15.299375 4.87625 16.59875 4.7525 17.9375 4.625 C19.03384766 4.52058594 19.03384766 4.52058594 20.15234375 4.4140625 C20.76207031 4.27742188 21.37179688 4.14078125 22 4 C22.33 3.34 22.66 2.68 23 2 C23.66 3.32 24.32 4.64 25 6 C18.59824969 8.49824402 13.63101404 8.87686802 7.25 6.25 C3.95613585 4.67882119 1.7743408 3.31210283 0 0 Z " fill="#2E4EA5" transform="translate(209,254)"/>
<path d="M0 0 C1.32 0 2.64 0 4 0 C5 3 5 3 3.5625 6.0625 C3.046875 7.031875 2.53125 8.00125 2 9 C2 9.66 2 10.32 2 11 C0.25 13.125 0.25 13.125 -2 15 C-3.32 15 -4.64 15 -6 15 C-6.43200679 10.24792529 -4.98489083 7.21789302 -3 3 C-2.34 3 -1.68 3 -1 3 C-0.67 2.01 -0.34 1.02 0 0 Z " fill="#2F50A8" transform="translate(368,157)"/>
<path d="M0 0 C0 0.99 0 1.98 0 3 C1.1490712 4.2981424 1.1490712 4.2981424 4 5 C2.625 7 2.625 7 1 9 C0.34 9 -0.32 9 -1 9 C-1.268125 9.5775 -1.53625 10.155 -1.8125 10.75 C-3.01719859 13.0325868 -4.40798115 14.9737942 -6 17 C-7.32 16.67 -8.64 16.34 -10 16 C-9.52112335 11.23735403 -7.50511358 8.77358348 -4.4375 5.1875 C-3.61121094 4.21167969 -2.78492188 3.23585937 -1.93359375 2.23046875 C-1.29550781 1.49441406 -0.65742188 0.75835937 0 0 Z " fill="#3A5AAA" transform="translate(386,164)"/>
<path d="M0 0 C0 0.66 0 1.32 0 2 C1.32 2 2.64 2 4 2 C5.03159626 5.09478879 4.97482862 6.52631393 4.5625 9.6875 C4.46066406 10.49574219 4.35882813 11.30398437 4.25390625 12.13671875 C4.17011719 12.75160156 4.08632813 13.36648437 4 14 C3.67 14 3.34 14 3 14 C2.67 10.37 2.34 6.74 2 3 C1.01 3 0.02 3 -1 3 C-1 3.99 -1 4.98 -1 6 C-0.34 6.33 0.32 6.66 1 7 C-0.8125 7.625 -0.8125 7.625 -3 8 C-3.99 7.34 -4.98 6.68 -6 6 C-6 7.65 -6 9.3 -6 11 C-5.01 11 -4.02 11 -3 11 C-3 11.99 -3 12.98 -3 14 C-5.86724686 13.42655063 -6.8614515 13.1385485 -9 11 C-9.125 7.875 -9.125 7.875 -9 5 C-8.34 4.67 -7.68 4.34 -7 4 C-7.99 3.34 -8.98 2.68 -10 2 C-8.7090864 1.66376204 -7.41723903 1.33110751 -6.125 1 C-5.40570313 0.814375 -4.68640625 0.62875 -3.9453125 0.4375 C-2 0 -2 0 0 0 Z " fill="#1A45B3" transform="translate(325,209)"/>
<path d="M0 0 C4.97874064 0.47416578 8.06718758 1.9099331 12 5 C12 5.66 12 6.32 12 7 C12.99 7.33 13.98 7.66 15 8 C14.34 9.32 13.68 10.64 13 12 C10.525 11.01 10.525 11.01 8 10 C8 9.34 8 8.68 8 8 C7.4225 7.896875 6.845 7.79375 6.25 7.6875 C3.58978053 6.87465516 2.00309159 5.93155261 0 4 C0 2.68 0 1.36 0 0 Z " fill="#4F68A8" transform="translate(243,181)"/>
<path d="M0 0 C1.18239258 0.01353516 1.18239258 0.01353516 2.38867188 0.02734375 C4.32174666 0.05077496 6.2546638 0.08664162 8.1875 0.125 C8.1875 0.455 8.1875 0.785 8.1875 1.125 C7.30707031 1.16238281 6.42664063 1.19976562 5.51953125 1.23828125 C4.35808594 1.30402344 3.19664062 1.36976563 2 1.4375 C0.85144531 1.49550781 -0.29710937 1.55351562 -1.48046875 1.61328125 C-5.6726995 2.25710567 -8.53923607 3.57493956 -11.25 6.875 C-12.8125 8.125 -12.8125 8.125 -16 7.8125 C-16.928125 7.585625 -17.85625 7.35875 -18.8125 7.125 C-19.1425 8.445 -19.4725 9.765 -19.8125 11.125 C-20.8025 11.125 -21.7925 11.125 -22.8125 11.125 C-21.83775605 7.2260242 -20.92981502 6.20247218 -17.5 3.9375 C-16.28888209 3.29792088 -15.05730066 2.69626122 -13.8125 2.125 C-13.09320313 1.76019531 -12.37390625 1.39539063 -11.6328125 1.01953125 C-7.71738143 -0.2223437 -4.07814438 -0.08887825 0 0 Z " fill="#93C067" transform="translate(425.8125,188.875)"/>
<path d="M0 0 C2.475 0.495 2.475 0.495 5 1 C6.7479503 6.24385089 7.19392201 10.47322267 7 16 C5.68 16 4.36 16 3 16 C-0.44419134 5.62642369 -0.44419134 5.62642369 0 0 Z " fill="#3B5EA5" transform="translate(299,149)"/>
<path d="M0 0 C1.32 0 2.64 0 4 0 C1.9268475 5.08864705 -1.50615127 8.16689205 -6.25 10.8125 C-12.89613384 12.91710905 -19.22054854 12.15394918 -26 11 C-24.8828125 9.4609375 -24.8828125 9.4609375 -23 8 C-20.1796875 8.1015625 -20.1796875 8.1015625 -16.875 8.625 C-10.98689766 9.23752071 -7.63847043 8.55717831 -2.609375 5.51953125 C-0.72217579 3.73768539 -0.36891244 2.53356044 0 0 Z " fill="#365296" transform="translate(361,268)"/>
<path d="M0 0 C2.61106596 0.35284675 4.55190182 0.69593338 6.75 2.1875 C8.49781729 4.72183507 8.74161346 6.96395821 9 10 C8.67 10.66 8.34 11.32 8 12 C5 12 5 12 3.359375 10.390625 C2.56273437 9.33101562 2.56273437 9.33101562 1.75 8.25 C1.20859375 7.55390625 0.6671875 6.8578125 0.109375 6.140625 C-1 4 -1 4 -0.671875 1.734375 C-0.45015625 1.16203125 -0.2284375 0.5896875 0 0 Z " fill="#2E52A5" transform="translate(249,157)"/>
<path d="M0 0 C-0.33 1.32 -0.66 2.64 -1 4 C-1.99 3.67 -2.98 3.34 -4 3 C-3.67 3.99 -3.34 4.98 -3 6 C-6.63 6.33 -10.26 6.66 -14 7 C-14 6.01 -14 5.02 -14 4 C-13.34 4 -12.68 4 -12 4 C-11.67 2.68 -11.34 1.36 -11 0 C-7.01803543 -1.05404945 -4.01804691 -0.84098656 0 0 Z " fill="#1741A5" transform="translate(322,168)"/>
<path d="M0 0 C0 0.99 0 1.98 0 3 C0.66 3.33 1.32 3.66 2 4 C0.38435133 5.94286865 -0.47637343 6.91475847 -3.015625 7.328125 C-3.75296875 7.30234375 -4.4903125 7.2765625 -5.25 7.25 C-6.03761719 7.22421875 -6.82523437 7.1984375 -7.63671875 7.171875 C-10.79886658 6.94190061 -13.8744821 6.53200305 -17 6 C-15.1875 4.9375 -15.1875 4.9375 -13 4 C-12.01 4.33 -11.02 4.66 -10 5 C-10 3.68 -10 2.36 -10 1 C-6.59437148 0.22157062 -3.49234244 -0.09978121 0 0 Z " fill="#1A45AA" transform="translate(340,167)"/>
<path d="M0 0 C1.06863281 0.21269531 2.13726562 0.42539063 3.23828125 0.64453125 C4.45064453 0.91330078 4.45064453 0.91330078 5.6875 1.1875 C5.3575 1.8475 5.0275 2.5075 4.6875 3.1875 C3.6975 3.5175 2.7075 3.8475 1.6875 4.1875 C0.95426204 6.20258358 0.95426204 6.20258358 0.6875 8.1875 C-0.9625 8.5175 -2.6125 8.8475 -4.3125 9.1875 C-3.9825 8.1975 -3.6525 7.2075 -3.3125 6.1875 C-4.9625 5.8575 -6.6125 5.5275 -8.3125 5.1875 C-7.9825 4.5275 -7.6525 3.8675 -7.3125 3.1875 C-8.6325 2.8575 -9.9525 2.5275 -11.3125 2.1875 C-7.19319361 -0.84657168 -4.96124085 -1.03586347 0 0 Z " fill="#284DB2" transform="translate(225.3125,210.8125)"/>
<path d="M0 0 C1.98 0 3.96 0 6 0 C5.896875 1.258125 5.79375 2.51625 5.6875 3.8125 C5.62814722 9.16272885 7.60244237 12.97596441 10.1015625 17.6171875 C10.39804687 18.40351563 10.69453125 19.18984375 11 20 C10.34 20.99 9.68 21.98 9 23 C7.82887054 20.37690901 6.66294036 17.75171858 5.5 15.125 C5.16613281 14.37863281 4.83226562 13.63226563 4.48828125 12.86328125 C4.17246094 12.14785156 3.85664063 11.43242187 3.53125 10.6953125 C3.23798828 10.03547363 2.94472656 9.37563477 2.64257812 8.69580078 C2 7 2 7 2 5 C1.01 4.67 0.02 4.34 -1 4 C-0.67 2.68 -0.34 1.36 0 0 Z " fill="#8CB556" transform="translate(438,212)"/>
<path d="M0 0 C0.99 0 1.98 0 3 0 C2.03603575 5.20540698 1.12319499 9.59913433 -2 14 C-3.65 13.67 -5.3 13.34 -7 13 C-6.01 10.03 -5.02 7.06 -4 4 C-3.34 4 -2.68 4 -2 4 C-2 3.34 -2 2.68 -2 2 C-1.34 2 -0.68 2 0 2 C0 1.34 0 0.68 0 0 Z " fill="#4161AC" transform="translate(353,153)"/>
<path d="M0 0 C4.62 0 9.24 0 14 0 C15.219055 4.87622001 14.35014932 6.08353581 12.1875 10.5 C11.64480469 11.6240625 11.10210937 12.748125 10.54296875 13.90625 C10.03378906 14.9271875 9.52460938 15.948125 9 17 C8.60425781 17.7940625 8.20851563 18.588125 7.80078125 19.40625 C7.53652344 19.9321875 7.27226562 20.458125 7 21 C6.71723227 16.19294854 7.85531795 12.28936409 10 8 C9.34 8 8.68 8 8 8 C7.67 8.66 7.34 9.32 7 10 C7 9.01 7 8.02 7 7 C8.65 7 10.3 7 12 7 C11.67 5.35 11.34 3.7 11 2 C7.37 1.67 3.74 1.34 0 1 C0 0.67 0 0.34 0 0 Z " fill="#4864AB" transform="translate(373,211)"/>
<path d="M0 0 C2.31 0 4.62 0 7 0 C5.625 1.5 5.625 1.5 4 3 C3.34 3 2.68 3 2 3 C1.67 4.65 1.34 6.3 1 8 C3.31 8.33 5.62 8.66 8 9 C8 9.33 8 9.66 8 10 C2.3067505 11.18609365 -1.42567486 10.66251802 -7 9 C-6.21625 8.2575 -5.4325 7.515 -4.625 6.75 C-2.43495469 4.45566682 -1.17268614 2.87841142 0 0 Z " fill="#87B651" transform="translate(415,204)"/>
<path d="M0 0 C0.66 0.33 1.32 0.66 2 1 C1.34 1.66 0.68 2.32 0 3 C0 3.99 0 4.98 0 6 C0.66 4.68 1.32 3.36 2 2 C2.99 2.33 3.98 2.66 5 3 C4.67 3.5775 4.34 4.155 4 4.75 C2.49369978 8.1391755 2.84844023 10.54532069 4 14 C3.34 14 2.68 14 2 14 C2 13.34 2 12.68 2 12 C1.34 12 0.68 12 0 12 C0 11.01 0 10.02 0 9 C-1.32 8.67 -2.64 8.34 -4 8 C-4.33 8.66 -4.66 9.32 -5 10 C-5.66 9.34 -6.32 8.68 -7 8 C-4.69 5.36 -2.38 2.72 0 0 Z " fill="#4566BC" transform="translate(276,180)"/>
<path d="M0 0 C0.33 0 0.66 0 1 0 C1 2.31 1 4.62 1 7 C0.34 7 -0.32 7 -1 7 C-0.67 7.99 -0.34 8.98 0 10 C-1 13 -1 13 -3 14 C-4.87379605 14.07033769 -6.75001102 14.0843022 -8.625 14.0625 C-9.62789062 14.05347656 -10.63078125 14.04445312 -11.6640625 14.03515625 C-12.43492187 14.02355469 -13.20578125 14.01195312 -14 14 C-13.34 13.67 -12.68 13.34 -12 13 C-12 12.34 -12 11.68 -12 11 C-9.36 11 -6.72 11 -4 11 C-3.67 9.68 -3.34 8.36 -3 7 C-5.64 6.67 -8.28 6.34 -11 6 C-11 5.67 -11 5.34 -11 5 C-7.7 4.67 -4.4 4.34 -1 4 C-0.67 2.68 -0.34 1.36 0 0 Z " fill="#193E96" transform="translate(239,225)"/>
<path d="M0 0 C0.33 0 0.66 0 1 0 C1 11.22 1 22.44 1 34 C-3.95 33.67 -8.9 33.34 -14 33 C-14 32.67 -14 32.34 -14 32 C-10.04 31.67 -6.08 31.34 -2 31 C-2 29.35 -2 27.7 -2 26 C-1.34 26 -0.68 26 0 26 C0 17.42 0 8.84 0 0 Z " fill="#8693D3" transform="translate(254,227)"/>
<path d="M0 0 C1.32 0.33 2.64 0.66 4 1 C3.67 2.32 3.34 3.64 3 5 C2.071875 5.12375 2.071875 5.12375 1.125 5.25 C-1.18437567 5.81258459 -1.18437567 5.81258459 -2.25 8.0625 C-2.4975 8.701875 -2.745 9.34125 -3 10 C-3.66 10 -4.32 10 -5 10 C-4.67 11.98 -4.34 13.96 -4 16 C-4.33 15.34 -4.66 14.68 -5 14 C-5.66 14 -6.32 14 -7 14 C-7 11.36 -7 8.72 -7 6 C-5.68 5.67 -4.36 5.34 -3 5 C-3 4.34 -3 3.68 -3 3 C-2.34 3 -1.68 3 -1 3 C-0.67 2.01 -0.34 1.02 0 0 Z " fill="#1840A2" transform="translate(353,230)"/>
<path d="M0 0 C1.97909398 -0.02686553 3.95828971 -0.04633375 5.9375 -0.0625 C7.03964844 -0.07410156 8.14179688 -0.08570313 9.27734375 -0.09765625 C12 0 12 0 13 1 C13.04063832 2.66617115 13.042721 4.33388095 13 6 C12.01 6 11.02 6 10 6 C9.34 8.64 8.68 11.28 8 14 C7.67 14 7.34 14 7 14 C7.185625 12.7625 7.37125 11.525 7.5625 10.25 C7.94711223 7.23720423 8.0874594 4.89989173 7 2 C4.69 1.67 2.38 1.34 0 1 C0 0.67 0 0.34 0 0 Z " fill="#6DA934" transform="translate(481,211)"/>
<path d="M0 0 C2.64 0 5.28 0 8 0 C8 2 8 4 8 6 C1.25 6.125 1.25 6.125 -1 5 C-1.33 5.66 -1.66 6.32 -2 7 C-2 5.35 -2 3.7 -2 2 C-1.34 2 -0.68 2 0 2 C0 1.34 0 0.68 0 0 Z " fill="#1B44AB" transform="translate(228,231)"/>
<path d="M0 0 C0.66 0 1.32 0 2 0 C1.00234667 4.48943996 0.01755659 7.95417795 -3.25 11.3125 C-6.45322305 13.27811415 -8.3085701 13.34338883 -12 13 C-11.67 12.01 -11.34 11.02 -11 10 C-10.34 10 -9.68 10 -9 10 C-8.67 9.34 -8.34 8.68 -8 8 C-7.01 8.33 -6.02 8.66 -5 9 C-5 8.34 -5 7.68 -5 7 C-4.01 6.34 -3.02 5.68 -2 5 C-0.79549696 2.44816596 -0.79549696 2.44816596 0 0 Z " fill="#80B24F" transform="translate(471,265)"/>
<path d="M0 0 C4.875 0.875 4.875 0.875 6 2 C7.67884238 2.3931648 9.36850045 2.74085452 11.0625 3.0625 C11.98160156 3.23910156 12.90070313 3.41570312 13.84765625 3.59765625 C14.55792969 3.73042969 15.26820313 3.86320313 16 4 C16 4.33 16 4.66 16 5 C15.38253906 4.98839844 14.76507813 4.97679687 14.12890625 4.96484375 C8.32474456 4.90300337 2.75661912 5.25721044 -3 6 C-3 5.34 -3 4.68 -3 4 C-2.34 3.67 -1.68 3.34 -1 3 C-0.67 2.01 -0.34 1.02 0 0 Z " fill="#2643A4" transform="translate(313,220)"/>
<path d="M0 0 C2.58361518 -0.05407567 5.16609255 -0.093707 7.75 -0.125 C8.84441406 -0.15013672 8.84441406 -0.15013672 9.9609375 -0.17578125 C13.8044624 -0.21072239 16.74606772 -0.17499684 20 2 C18.35 2.33 16.7 2.66 15 3 C15.66 5.31 16.32 7.62 17 10 C15.35 10 13.7 10 12 10 C12.33 7.69 12.66 5.38 13 3 C10.08500057 2.20439236 7.25438581 1.74677501 4.25 1.4375 C3.45078125 1.35371094 2.6515625 1.26992187 1.828125 1.18359375 C1.22484375 1.12300781 0.6215625 1.06242188 0 1 C0 0.67 0 0.34 0 0 Z " fill="#405FAD" transform="translate(223,210)"/>
<path d="M0 0 C8.26737199 0.91161136 14.16249497 3.2834564 21 8 C20.67 8.66 20.34 9.32 20 10 C18.329375 9.13375 18.329375 9.13375 16.625 8.25 C12.54699723 6.19643432 8.37495724 4.53055674 4.1015625 2.9296875 C2 2 2 2 0 0 Z " fill="#425BA8" transform="translate(172,191)"/>
<path d="M0 0 C2.64 0.33 5.28 0.66 8 1 C7.34 1.66 6.68 2.32 6 3 C6.33 3.66 6.66 4.32 7 5 C6.01 6.485 6.01 6.485 5 8 C4.67 7.01 4.34 6.02 4 5 C3.01 6.98 2.02 8.96 1 11 C0.34 10.67 -0.32 10.34 -1 10 C-0.34 7.69 0.32 5.38 1 3 C0.34 3 -0.32 3 -1 3 C-0.67 2.01 -0.34 1.02 0 0 Z " fill="#3A54A3" transform="translate(336,265)"/>
<path d="M0 0 C0.99 0 1.98 0 3 0 C3.66 2.64 4.32 5.28 5 8 C5.99 8 6.98 8 8 8 C8 7.34 8 6.68 8 6 C9.98 6 11.96 6 14 6 C14 6.66 14 7.32 14 8 C10.56062459 9.5722859 7.78596147 10.69741396 4 10 C1.49616713 6.87020891 0.5619765 3.93383553 0 0 Z " fill="#455C97" transform="translate(210,215)"/>
<path d="M0 0 C0.7734375 0.3403125 0.7734375 0.3403125 1.5625 0.6875 C1.8925 1.6775 2.2225 2.6675 2.5625 3.6875 C-10.8125 3.6875 -10.8125 3.6875 -14.4375 1.6875 C-10.01471529 -1.26102314 -5.05294546 -0.64781352 0 0 Z " fill="#1943A9" transform="translate(304.4375,172.3125)"/>
<path d="M0 0 C0.66 0 1.32 0 2 0 C4.436168 7.49701701 5.41136629 14.12309743 5 22 C4.67 22 4.34 22 4 22 C3.67 19.36 3.34 16.72 3 14 C2.67 14 2.34 14 2 14 C2 11.36 2 8.72 2 6 C1.34 6 0.68 6 0 6 C0 4.02 0 2.04 0 0 Z " fill="#4B66A5" transform="translate(197,208)"/>
<path d="M0 0 C0.33 0.66 0.66 1.32 1 2 C1.66 2 2.32 2 3 2 C3.66 3.65 4.32 5.3 5 7 C4.01 7.495 4.01 7.495 3 8 C2.67 9.32 2.34 10.64 2 12 C-0.475 8.04 -0.475 8.04 -3 4 C-2.34 4 -1.68 4 -1 4 C-0.67 2.68 -0.34 1.36 0 0 Z " fill="#617CB6" transform="translate(258,165)"/>
<path d="M0 0 C1.9375 0.3125 1.9375 0.3125 4 1 C4.33 1.99 4.66 2.98 5 4 C3.68 5.32 2.36 6.64 1 8 C0.34 7.01 -0.32 6.02 -1 5 C-3.97 7.475 -3.97 7.475 -7 10 C-5.33248852 6.05860922 -2.77289351 3.2107188 0 0 Z " fill="#5A73AF" transform="translate(395,153)"/>
<path d="M0 0 C3.2578125 -0.29296875 3.2578125 -0.29296875 7.125 -0.1875 C9.04699219 -0.14689453 9.04699219 -0.14689453 11.0078125 -0.10546875 C11.99523437 -0.07066406 12.98265625 -0.03585938 14 0 C14 0.33 14 0.66 14 1 C8.06 1.495 8.06 1.495 2 2 C1.01 4.64 0.02 7.28 -1 10 C-1.66 10 -2.32 10 -3 10 C-2.25 3.375 -2.25 3.375 0 0 Z " fill="#2C4A94" transform="translate(372,212)"/>
<path d="M0 0 C0.99 0 1.98 0 3 0 C3.33 0.66 3.66 1.32 4 2 C4.61875 1.814375 5.2375 1.62875 5.875 1.4375 C8 1 8 1 10 2 C10 2.99 10 3.98 10 5 C8.20866022 5.05391993 6.41686101 5.09275571 4.625 5.125 C3.62726563 5.14820313 2.62953125 5.17140625 1.6015625 5.1953125 C-1 5 -1 5 -3 3 C-2.01 3 -1.02 3 0 3 C0 2.01 0 1.02 0 0 Z " fill="#274CA5" transform="translate(352,173)"/>
<path d="M0 0 C1.8125 0.0625 1.8125 0.0625 4 1 C5.21049243 3.37442747 6.14306099 5.50524265 7 8 C7.391875 9.134375 7.78375 10.26875 8.1875 11.4375 C8.455625 12.283125 8.72375 13.12875 9 14 C5.83884224 12.63016497 5.0072908 12.0109362 3 9 C3.020625 8.154375 3.04125 7.30875 3.0625 6.4375 C3.041875 5.633125 3.02125 4.82875 3 4 C2.01 3.34 1.02 2.68 0 2 C0 1.34 0 0.68 0 0 Z " fill="#94B96C" transform="translate(452,211)"/>
<path d="M0 0 C3.3 0 6.6 0 10 0 C10.33 1.65 10.66 3.3 11 5 C10.505 4.855625 10.01 4.71125 9.5 4.5625 C6.02247078 3.78005593 2.54044877 3.41305236 -1 3 C-0.67 2.01 -0.34 1.02 0 0 Z " fill="#1744A9" transform="translate(374,213)"/>
<path d="M0 0 C5.75 3.75 5.75 3.75 8 6 C7.67 7.32 7.34 8.64 7 10 C4.03 7.69 1.06 5.38 -2 3 C-1.34 2.67 -0.68 2.34 0 2 C0 1.34 0 0.68 0 0 Z " fill="#6E89B2" transform="translate(385,190)"/>
<path d="M0 0 C0.66 0 1.32 0 2 0 C2.67057887 1.7902061 3.3363469 3.58221489 4 5.375 C4.556875 6.87160156 4.556875 6.87160156 5.125 8.3984375 C6 11 6 11 6 13 C6.66 13.33 7.32 13.66 8 14 C7.01 14.33 6.02 14.66 5 15 C4.566875 13.906875 4.13375 12.81375 3.6875 11.6875 C2.71101414 9.3560816 2.12474106 8.11583098 0.25 6.375 C-0.1625 5.92125 -0.575 5.4675 -1 5 C-0.6875 2.3125 -0.6875 2.3125 0 0 Z " fill="#8DBD53" transform="translate(460,225)"/>
<path d="M0 0 C0.66 0 1.32 0 2 0 C1.76228882 0.85609863 1.76228882 0.85609863 1.51977539 1.72949219 C1.00638657 3.97210188 0.79834104 6.03317915 0.68359375 8.328125 C0.64169922 9.12734375 0.59980469 9.9265625 0.55664062 10.75 C0.51732422 11.575 0.47800781 12.4 0.4375 13.25 C0.39431641 14.09046875 0.35113281 14.9309375 0.30664062 15.796875 C0.20091457 17.86440671 0.09998705 19.93218281 0 22 C-0.66 21.67 -1.32 21.34 -2 21 C-3.35599891 16.78393443 -2.78975269 13.13339248 -2.125 8.8125 C-1.94195312 7.58144531 -1.75890625 6.35039062 -1.5703125 5.08203125 C-1 2 -1 2 0 0 Z " fill="#91B06D" transform="translate(401,200)"/>
<path d="M0 0 C1 2 1 2 0.07421875 4.78515625 C-0.38339844 5.86667969 -0.84101563 6.94820312 -1.3125 8.0625 C-1.76238281 9.14660156 -2.21226562 10.23070312 -2.67578125 11.34765625 C-4 14 -4 14 -6 15 C-6.66 14.34 -7.32 13.68 -8 13 C-7.04901734 11.01729088 -6.08899297 9.03891621 -5.125 7.0625 C-4.32449219 5.40927734 -4.32449219 5.40927734 -3.5078125 3.72265625 C-2 1 -2 1 0 0 Z " fill="#506DAE" transform="translate(379,232)"/>
<path d="M0 0 C2.76276177 0.52268466 5.3260876 1.10869587 8 2 C8.33 1.34 8.66 0.68 9 0 C9.99 0.66 10.98 1.32 12 2 C12 3.32 12 4.64 12 6 C7.24518354 5.42365861 4.02951788 3.44931479 0 1 C0 0.67 0 0.34 0 0 Z " fill="#5871AD" transform="translate(373,186)"/>
<path d="M0 0 C1.32 0 2.64 0 4 0 C2.0538131 4.77700421 -1.1444002 8.13405342 -5.8125 10.3125 C-6.8953125 10.6528125 -6.8953125 10.6528125 -8 11 C-6.03198508 7.26077165 -4.70253733 5.85126866 -1 4 C-0.19471111 1.94999129 -0.19471111 1.94999129 0 0 Z " fill="#445FA3" transform="translate(361,268)"/>
<path d="M0 0 C-4.95 0.33 -9.9 0.66 -15 1 C-15 1.66 -15 2.32 -15 3 C-17.31 2.67 -19.62 2.34 -22 2 C-17.85518864 -0.14386795 -14.20503801 -1.20245871 -9.5625 -1.6875 C-8.61503906 -1.79449219 -7.66757813 -1.90148437 -6.69140625 -2.01171875 C-4 -2 -4 -2 0 0 Z " fill="#506AB6" transform="translate(238,230)"/>
<path d="M0 0 C0.99 0.33 1.98 0.66 3 1 C0.87266262 4.19100606 -0.05233386 4.76030456 -3.4375 6.25 C-4.21996094 6.60578125 -5.00242188 6.9615625 -5.80859375 7.328125 C-8 8 -8 8 -11 7 C-9 4 -9 4 -6.8359375 3.48828125 C-6.02382812 3.43027344 -5.21171875 3.37226563 -4.375 3.3125 C-3.55773437 3.24675781 -2.74046875 3.18101562 -1.8984375 3.11328125 C-1.27195313 3.07589844 -0.64546875 3.03851563 0 3 C0 2.01 0 1.02 0 0 Z " fill="#536AAF" transform="translate(187,251)"/>
<path d="M0 0 C0.99 0.99 1.98 1.98 3 3 C-0.09902323 6.09902323 -2.39147385 5.9898579 -6.75 6.0625 C-7.8225 6.041875 -8.895 6.02125 -10 6 C-10 5.34 -10 4.68 -10 4 C-6.7 3.34 -3.4 2.68 0 2 C0 1.34 0 0.68 0 0 Z " fill="#566CB0" transform="translate(231,256)"/>
<path d="M0 0 C2.46800047 1.15173355 4.04783565 2.04783565 6 4 C6.1953125 6.1640625 6.1953125 6.1640625 6.125 8.625 C6.10695313 9.44226563 6.08890625 10.25953125 6.0703125 11.1015625 C6.03550781 12.04128906 6.03550781 12.04128906 6 13 C4.1727089 10.25906335 3.06301822 7.86174676 1.875 4.8125 C1.52179688 3.91144531 1.16859375 3.01039063 0.8046875 2.08203125 C0.53914063 1.39496094 0.27359375 0.70789063 0 0 Z " fill="#4A64AA" transform="translate(340,230)"/>
<path d="M0 0 C0 0.33 0 0.66 0 1 C-4.62 1 -9.24 1 -14 1 C-13.67 3.64 -13.34 6.28 -13 9 C-13.66 8.67 -14.32 8.34 -15 8 C-15.40729228 5.67843403 -15.74438677 3.3431213 -16 1 C-10.28728907 -1.0662997 -5.96345767 -1.0006709 0 0 Z " fill="#97B0D3" transform="translate(349,211)"/>
<path d="M0 0 C0.66 0 1.32 0 2 0 C3.20798319 6.28151261 3.20798319 6.28151261 2.3125 9.375 C0.6818563 11.3938922 -0.469528 11.66260373 -3 12 C-2.484375 11.29875 -1.96875 10.5975 -1.4375 9.875 C0.31141797 6.37716405 -0.15256052 4.72873372 -1 1 C-0.67 0.67 -0.34 0.34 0 0 Z " fill="#405AA4" transform="translate(352,253)"/>
<path d="M0 0 C2.46278801 2.46278801 2.99771255 4.70676982 4 8 C2.02 8.33 0.04 8.66 -2 9 C-2.66 8.01 -3.32 7.02 -4 6 C-3.01 5.67 -2.02 5.34 -1 5 C-0.67 3.35 -0.34 1.7 0 0 Z " fill="#2F4EA0" transform="translate(357,231)"/>
<path d="M0 0 C2 1.75 2 1.75 4 4 C4 5.32 4 6.64 4 8 C3.01 8.33 2.02 8.66 1 9 C-0.5 7.75 -0.5 7.75 -2 6 C-2 2 -2 2 0 0 Z " fill="#3759B4" transform="translate(347,265)"/>
<path d="M0 0 C0.66 0 1.32 0 2 0 C0.91495658 4.70185482 -0.30804541 8.96206812 -3 13 C-3.66 12.67 -4.32 12.34 -5 12 C-4.35758106 10.186287 -3.71096881 8.37405876 -3.0625 6.5625 C-2.70285156 5.55316406 -2.34320313 4.54382813 -1.97265625 3.50390625 C-1 1 -1 1 0 0 Z " fill="#83AC55" transform="translate(478,211)"/>
<path d="M0 0 C4.95 0 9.9 0 15 0 C14.67 0.66 14.34 1.32 14 2 C13.34 1.67 12.68 1.34 12 1 C12 1.66 12 2.32 12 3 C8.04 2.67 4.08 2.34 0 2 C0 1.34 0 0.68 0 0 Z " fill="#385095" transform="translate(264,211)"/>
<path d="M0 0 C0.99 1.32 1.98 2.64 3 4 C0.08014685 6.48728231 -2.14219907 7.71066493 -6 8 C-8.15625 7.01171875 -8.15625 7.01171875 -10 6 C-9.36191406 5.81824219 -8.72382813 5.63648438 -8.06640625 5.44921875 C-7.24011719 5.19785156 -6.41382813 4.94648438 -5.5625 4.6875 C-4.32693359 4.32205078 -4.32693359 4.32205078 -3.06640625 3.94921875 C-2.38449219 3.63597656 -1.70257813 3.32273438 -1 3 C-0.67 2.01 -0.34 1.02 0 0 Z " fill="#43609F" transform="translate(277,198)"/>
<path d="M0 0 C0.66 0 1.32 0 2 0 C2 0.66 2 1.32 2 2 C2.66 2 3.32 2 4 2 C4 3.98 4 5.96 4 8 C3.34 8 2.68 8 2 8 C2 7.01 2 6.02 2 5 C0.02 5.33 -1.96 5.66 -4 6 C-2.7260411 3.96166576 -1.38938077 1.96147874 0 0 Z " fill="#25479F" transform="translate(276,192)"/>
<path d="M0 0 C3 1 3 1 4.45703125 3.3984375 C4.90433594 4.38070312 5.35164063 5.36296875 5.8125 6.375 C6.50279297 7.84066406 6.50279297 7.84066406 7.20703125 9.3359375 C7.46871094 10.21507812 7.73039062 11.09421875 8 12 C7.01 13.485 7.01 13.485 6 15 C4.02 10.05 2.04 5.1 0 0 Z " fill="#A0C169" transform="translate(441,220)"/>
<path d="M0 0 C0.103125 0.639375 0.20625 1.27875 0.3125 1.9375 C0.539375 2.618125 0.76625 3.29875 1 4 C1.99 4.33 2.98 4.66 4 5 C3.34 6.32 2.68 7.64 2 9 C0.68 9 -0.64 9 -2 9 C-2.20140476 5.37471432 -1.85776765 3.13498292 0 0 Z " fill="#5C77B4" transform="translate(364,163)"/>
<path d="M0 0 C5.53846154 0.61538462 5.53846154 0.61538462 7.875 2.5625 C8.431875 3.2740625 8.431875 3.2740625 9 4 C7.35 4 5.7 4 4 4 C4 4.66 4 5.32 4 6 C2.68 5.34 1.36 4.68 0 4 C0 2.68 0 1.36 0 0 Z " fill="#6C85BA" transform="translate(243,181)"/>
<path d="M0 0 C0 1.32 0 2.64 0 4 C-1.98 4.33 -3.96 4.66 -6 5 C-6.33 4.01 -6.66 3.02 -7 2 C-6 0 -6 0 -4.0625 -0.6875 C-2 -1 -2 -1 0 0 Z " fill="#3552A3" transform="translate(407,175)"/>
<path d="M0 0 C1.65 0 3.3 0 5 0 C5.33 1.65 5.66 3.3 6 5 C2 5 2 5 0.25 3.5 C-0.1625 3.005 -0.575 2.51 -1 2 C-0.67 1.34 -0.34 0.68 0 0 Z " fill="#5270B3" transform="translate(263,177)"/>
<path d="M0 0 C0.804375 0.7425 0.804375 0.7425 1.625 1.5 C4.66554673 3.4203453 6.45624771 3.36914086 10 3 C12.30230766 2.10168984 12.30230766 2.10168984 14 1 C13.67 2.32 13.34 3.64 13 5 C9.04 5 5.08 5 1 5 C0.67 3.35 0.34 1.7 0 0 Z " fill="#5A70B3" transform="translate(222,246)"/>
<path d="M0 0 C-1.31860889 4.61513112 -3.21355437 8.09897612 -6 12 C-6.66 11.34 -7.32 10.68 -8 10 C-7.34 10 -6.68 10 -6 10 C-5.67 8.35 -5.34 6.7 -5 5 C-4.01 4.67 -3.02 4.34 -2 4 C-2 3.34 -2 2.68 -2 2 C-2.66 1.67 -3.32 1.34 -4 1 C-2 0 -2 0 0 0 Z " fill="#526BAF" transform="translate(200,237)"/>
<path d="M0 0 C0.12375 0.53625 0.2475 1.0725 0.375 1.625 C1.12206016 4.4638286 2.05303364 7.22223202 3 10 C1.0625 9.375 1.0625 9.375 -1 8 C-1.75 4.875 -1.75 4.875 -2 2 C-2.99 1.67 -3.98 1.34 -5 1 C-3.35 0.67 -1.7 0.34 0 0 Z " fill="#3953A2" transform="translate(350,211)"/>
<path d="M0 0 C4.62 0 9.24 0 14 0 C15 4 15 4 14 6 C13.34 6 12.68 6 12 6 C11.67 4.68 11.34 3.36 11 2 C7.37 1.67 3.74 1.34 0 1 C0 0.67 0 0.34 0 0 Z " fill="#A4B2D1" transform="translate(373,211)"/>
<path d="M0 0 C0.99 0.33 1.98 0.66 3 1 C3 1.66 3 2.32 3 3 C0.1875 5.1875 0.1875 5.1875 -3 7 C-3.99 6.67 -4.98 6.34 -6 6 C-5.34 4.68 -4.68 3.36 -4 2 C-2.68 2 -1.36 2 0 2 C0 1.34 0 0.68 0 0 Z " fill="#3154A9" transform="translate(284,181)"/>
<path d="M0 0 C5.94 0.99 5.94 0.99 12 2 C12 2.33 12 2.66 12 3 C6.06 3.33 0.12 3.66 -6 4 C-6 3.67 -6 3.34 -6 3 C-4.02 2.67 -2.04 2.34 0 2 C0 1.34 0 0.68 0 0 Z " fill="#506FB6" transform="translate(318,171)"/>
<path d="M0 0 C0 0.99 0 1.98 0 3 C1.1490712 4.2981424 1.1490712 4.2981424 4 5 C2.625 7 2.625 7 1 9 C0.34 9 -0.32 9 -1 9 C-1.33 9.66 -1.66 10.32 -2 11 C-3.35384615 4.6 -3.35384615 4.6 -1.5625 1.5625 C-1.046875 1.046875 -0.53125 0.53125 0 0 Z " fill="#6882BA" transform="translate(386,164)"/>
<path d="M0 0 C2.18975773 3.28463659 2.99806563 6.20696275 4 10 C2.35 10.33 0.7 10.66 -1 11 C-1.33 10.01 -1.66 9.02 -2 8 C-1.34 8 -0.68 8 0 8 C0 5.36 0 2.72 0 0 Z " fill="#516BAC" transform="translate(289,158)"/>
<path d="M0 0 C1 2 1 2 0.22265625 4.3828125 C-0.16019531 5.28773438 -0.54304688 6.19265625 -0.9375 7.125 C-1.31777344 8.03507812 -1.69804687 8.94515625 -2.08984375 9.8828125 C-2.39019531 10.58148438 -2.69054687 11.28015625 -3 12 C-3.33 12 -3.66 12 -4 12 C-4.33 9.69 -4.66 7.38 -5 5 C-4.34 4.67 -3.68 4.34 -3 4 C-2.67 3.01 -2.34 2.02 -2 1 C-1.34 0.67 -0.68 0.34 0 0 Z " fill="#93BA5D" transform="translate(477,253)"/>
<path d="M0 0 C0.33 0.99 0.66 1.98 1 3 C2.32 2.01 3.64 1.02 5 0 C5.66 0.33 6.32 0.66 7 1 C4.375 5.875 4.375 5.875 1 7 C0 6 0 6 -0.0625 2.9375 C-0.041875 1.968125 -0.02125 0.99875 0 0 Z " fill="#4865B3" transform="translate(308,212)"/>
<path d="M0 0 C1.97909398 -0.02686553 3.95828971 -0.04633375 5.9375 -0.0625 C7.03964844 -0.07410156 8.14179688 -0.08570313 9.27734375 -0.09765625 C12 0 12 0 13 1 C13.04063832 2.66617115 13.042721 4.33388095 13 6 C12.34 6 11.68 6 11 6 C10.67 4.68 10.34 3.36 10 2 C8.3603125 2.061875 8.3603125 2.061875 6.6875 2.125 C3 2 3 2 0 0 Z " fill="#B5C991" transform="translate(481,211)"/>
<path d="M0 0 C0.66 0 1.32 0 2 0 C2 0.66 2 1.32 2 2 C3.32 2 4.64 2 6 2 C7.03159626 5.09478879 6.97482862 6.52631393 6.5625 9.6875 C6.46066406 10.49574219 6.35882813 11.30398437 6.25390625 12.13671875 C6.17011719 12.75160156 6.08632813 13.36648437 6 14 C5.67 14 5.34 14 5 14 C4.67 10.37 4.34 6.74 4 3 C2.35 3 0.7 3 -1 3 C-0.67 2.01 -0.34 1.02 0 0 Z " fill="#6F84B7" transform="translate(323,209)"/>
<path d="M0 0 C0.33 0.99 0.66 1.98 1 3 C3.31 3.33 5.62 3.66 8 4 C8 4.33 8 4.66 8 5 C3.28400182 5.92470553 0.32734391 6.22923777 -4 4 C-2.68 2.68 -1.36 1.36 0 0 Z " fill="#8DBC5F" transform="translate(415,209)"/>
<path d="M0 0 C1.33333333 0.66666667 2.66666667 1.33333333 4 2 C6.32495277 2.38749213 8.65851268 2.72982839 11 3 C11 3.33 11 3.66 11 4 C8.87506859 4.02693575 6.75004088 4.04636628 4.625 4.0625 C3.44164062 4.07410156 2.25828125 4.08570313 1.0390625 4.09765625 C-2 4 -2 4 -4 3 C-3 1 -3 1 0 0 Z " fill="#71AA3B" transform="translate(421,200)"/>
<path d="M0 0 C-0.66 1.32 -1.32 2.64 -2 4 C-4.97 3.505 -4.97 3.505 -8 3 C-7.67 2.01 -7.34 1.02 -7 0 C-2.25 -1.125 -2.25 -1.125 0 0 Z " fill="#1946B3" transform="translate(278,198)"/>
<path d="M0 0 C2.1879642 3.28194629 2.18876203 4.22475937 2 8 C2 8.99 2 9.98 2 11 C1.34 11 0.68 11 0 11 C-2.21538462 4.6 -2.21538462 4.6 -1.125 1.5625 C-0.75375 1.046875 -0.3825 0.53125 0 0 Z " fill="#6579B7" transform="translate(264,192)"/>
<path d="M0 0 C0.33 0 0.66 0 1 0 C1 2.97 1 5.94 1 9 C1.99 8.67 2.98 8.34 4 8 C3.67 9.32 3.34 10.64 3 12 C1.68 12.33 0.36 12.66 -1 13 C-0.67 8.71 -0.34 4.42 0 0 Z " fill="#516CB1" transform="translate(333,152)"/>
<path d="M0 0 C3.68754757 0.49831724 5.60490662 1.10067643 8 4 C7.67 4.66 7.34 5.32 7 6 C5.68 5.34 4.36 4.68 3 4 C3 3.34 3 2.68 3 2 C2.34 2 1.68 2 1 2 C1.33 3.32 1.66 4.64 2 6 C1.01 5.34 0.02 4.68 -1 4 C-0.67 2.68 -0.34 1.36 0 0 Z " fill="#637CAE" transform="translate(249,157)"/>
<path d="M0 0 C0.99 0 1.98 0 3 0 C2.34 2.97 1.68 5.94 1 9 C0.01 8.34 -0.98 7.68 -2 7 C-2 6.34 -2 5.68 -2 5 C-2.66 4.67 -3.32 4.34 -4 4 C-3.34 4 -2.68 4 -2 4 C-2 3.34 -2 2.68 -2 2 C-1.34 2 -0.68 2 0 2 C0 1.34 0 0.68 0 0 Z " fill="#486EBC" transform="translate(353,153)"/>
<path d="M0 0 C3 1 3 1 4.6875 4.1875 C6.01535157 7.5347925 6.26451861 10.38491227 6 14 C4.06061181 11.09091772 3.03225043 8.59137621 1.875 5.3125 C1.52179688 4.31863281 1.16859375 3.32476562 0.8046875 2.30078125 C0.53914063 1.54152344 0.27359375 0.78226563 0 0 Z " fill="#98BA6E" transform="translate(448,235)"/>
<path d="M0 0 C7.42857143 -0.28571429 7.42857143 -0.28571429 11 2 C8.35541621 3.32229189 6.32238699 3.09677194 3.375 3.0625 C2.37210938 3.05347656 1.36921875 3.04445312 0.3359375 3.03515625 C-0.43492187 3.02355469 -1.20578125 3.01195312 -2 3 C-1.34 2.67 -0.68 2.34 0 2 C0 1.34 0 0.68 0 0 Z " fill="#1C3A87" transform="translate(227,236)"/>
<path d="M0 0 C0.66 0.33 1.32 0.66 2 1 C1.67 1.99 1.34 2.98 1 4 C-1.0625 4.6875 -1.0625 4.6875 -3 5 C-3.33 6.32 -3.66 7.64 -4 9 C-4.66 9 -5.32 9 -6 9 C-5.34 6.36 -4.68 3.72 -4 1 C-3.67 1.66 -3.34 2.32 -3 3 C-2.01 2.01 -1.02 1.02 0 0 Z " fill="#3E5AAD" transform="translate(372,219)"/>
<path d="M0 0 C0.66 0.33 1.32 0.66 2 1 C1.34 1.66 0.68 2.32 0 3 C-0.70710678 4.64991582 -1.37943989 6.31562256 -2 8 C-2.66 8 -3.32 8 -4 8 C-4.33 8.66 -4.66 9.32 -5 10 C-5.66 9.34 -6.32 8.68 -7 8 C-4.69 5.36 -2.38 2.72 0 0 Z " fill="#556FB6" transform="translate(276,180)"/>
<path d="M0 0 C0.66 0 1.32 0 2 0 C3.28317892 3.84953676 3.06643637 6.94738135 3 11 C0 9 0 9 -0.75 7.1875 C-1.04654743 4.59271 -0.63034051 2.52136205 0 0 Z " fill="#4F69BB" transform="translate(303,154)"/>
<path d="M0 0 C2.00720923 0.28674418 4.0085944 0.61866701 6 1 C6 1.99 6 2.98 6 4 C4.35 4.33 2.7 4.66 1 5 C0.34 3.68 -0.32 2.36 -1 1 C-0.67 0.67 -0.34 0.34 0 0 Z " fill="#3C5EB1" transform="translate(247,184)"/>
<path d="M0 0 C3.3 0 6.6 0 10 0 C9.34 0.66 8.68 1.32 8 2 C7.01 2 6.02 2 5 2 C4.67 2.66 4.34 3.32 4 4 C2.35 3.67 0.7 3.34 -1 3 C-0.67 2.01 -0.34 1.02 0 0 Z " fill="#5D7CB9" transform="translate(286,179)"/>
<path d="M0 0 C2.6855594 2.6855594 3.06049974 5.37621328 4 9 C2.02 9.33 0.04 9.66 -2 10 C-1.34 6.7 -0.68 3.4 0 0 Z " fill="#4A76B6" transform="translate(285,147)"/>
<path d="M0 0 C0.99 0.33 1.98 0.66 3 1 C4.40070201 4.25608216 3.81848927 6.87028325 3.0625 10.25 C2.86785156 11.14203125 2.67320312 12.0340625 2.47265625 12.953125 C2.31667969 13.62859375 2.16070312 14.3040625 2 15 C1.67 15 1.34 15 1 15 C0.97303635 13.20841511 0.95362083 11.41671527 0.9375 9.625 C0.92589844 8.62726563 0.91429687 7.62953125 0.90234375 6.6015625 C1 4 1 4 2 2 C0.68 1.67 -0.64 1.34 -2 1 C-1.34 0.67 -0.68 0.34 0 0 Z " fill="#6E8DC1" transform="translate(336,145)"/>
<path d="M0 0 C1.32 1.32 2.64 2.64 4 4 C3.01 4.33 2.02 4.66 1 5 C1.33 5.99 1.66 6.98 2 8 C1.01 8.495 1.01 8.495 0 9 C-0.33 8.34 -0.66 7.68 -1 7 C-1.66 6.67 -2.32 6.34 -3 6 C-2.34 5.34 -1.68 4.68 -1 4 C-0.3574765 1.93125966 -0.3574765 1.93125966 0 0 Z " fill="#4765B2" transform="translate(364,231)"/>
<path d="M0 0 C0.66 0.66 1.32 1.32 2 2 C1.7578125 4.1640625 1.7578125 4.1640625 1.125 6.625 C0.92132813 7.44226563 0.71765625 8.25953125 0.5078125 9.1015625 C0.34023437 9.72804687 0.17265625 10.35453125 0 11 C-1.32 10.67 -2.64 10.34 -4 10 C-3.525625 9.46375 -3.05125 8.9275 -2.5625 8.375 C-0.71813924 5.57157164 -0.37543153 3.30379742 0 0 Z " fill="#526BAE" transform="translate(184,229)"/>
<path d="M0 0 C1.32 0 2.64 0 4 0 C4.33 0.99 4.66 1.98 5 3 C3.0625 5.6875 3.0625 5.6875 1 8 C1 6.35 1 4.7 1 3 C0.34 3 -0.32 3 -1 3 C-0.67 2.01 -0.34 1.02 0 0 Z " fill="#6579B2" transform="translate(368,157)"/>
<path d="M0 0 C3.3 0.99 6.6 1.98 10 3 C10 3.33 10 3.66 10 4 C6.7 4 3.4 4 0 4 C0 2.68 0 1.36 0 0 Z " fill="#173E98" transform="translate(240,255)"/>
<path d="M0 0 C-1.32 1.32 -2.64 2.64 -4 4 C-4.66 3.34 -5.32 2.68 -6 2 C-8.10820797 2.3185177 -8.10820797 2.3185177 -10 3 C-8 0 -8 0 -5.5625 -0.75 C-3 -1 -3 -1 0 0 Z " fill="#2E4EAD" transform="translate(187,240)"/>
<path d="M0 0 C0 0.66 0 1.32 0 2 C0.66 2 1.32 2 2 2 C2 2.99 2 3.98 2 5 C2.66 5.33 3.32 5.66 4 6 C2.68 6.33 1.36 6.66 0 7 C0 5.68 0 4.36 0 3 C-2.31 2.67 -4.62 2.34 -7 2 C-7 1.67 -7 1.34 -7 1 C-2.25 0 -2.25 0 0 0 Z " fill="#3C5DB1" transform="translate(322,210)"/>
<path d="M0 0 C0.33 0.66 0.66 1.32 1 2 C1.66 2 2.32 2 3 2 C3.33 3.32 3.66 4.64 4 6 C3.01 6.495 3.01 6.495 2 7 C1.67 6.34 1.34 5.68 1 5 C0.01 5 -0.98 5 -2 5 C-1.125 1.125 -1.125 1.125 0 0 Z " fill="#2951AA" transform="translate(267,189)"/>
<path d="M0 0 C0.66 0.33 1.32 0.66 2 1 C1.01 2.485 1.01 2.485 0 4 C0.99 4.33 1.98 4.66 3 5 C0 7 0 7 -3 7 C-3.1875 4.625 -3.1875 4.625 -3 2 C-2.01 1.34 -1.02 0.68 0 0 Z " fill="#7A8AC0" transform="translate(393,182)"/>
<path d="M0 0 C1.0625 1.8125 1.0625 1.8125 2 4 C1.67 4.99 1.34 5.98 1 7 C-1.5 5.625 -1.5 5.625 -4 4 C-4 3.34 -4 2.68 -4 2 C-2.68 1.34 -1.36 0.68 0 0 Z " fill="#193F9B" transform="translate(213,250)"/>
<path d="M0 0 C0.33 0.66 0.66 1.32 1 2 C1.99 2.33 2.98 2.66 4 3 C2.54536519 3.38909985 1.08608793 3.76088029 -0.375 4.125 C-1.18710938 4.33382812 -1.99921875 4.54265625 -2.8359375 4.7578125 C-3.55007812 4.83773437 -4.26421875 4.91765625 -5 5 C-5.66 4.34 -6.32 3.68 -7 3 C-4.69 2.01 -2.38 1.02 0 0 Z " fill="#3A53A2" transform="translate(175,243)"/>
<path d="M0 0 C1.65 0.33 3.3 0.66 5 1 C4.01 1.33 3.02 1.66 2 2 C2 2.66 2 3.32 2 4 C-4.625 5.25 -4.625 5.25 -8 3 C-5.36 3 -2.72 3 0 3 C0 2.01 0 1.02 0 0 Z " fill="#4E6BB1" transform="translate(362,175)"/>
<path d="M0 0 C0.99 0.99 1.98 1.98 3 3 C2.34 4.65 1.68 6.3 1 8 C-1.35953094 5.64046906 -1.49141413 4.22104383 -2 1 C-1.34 0.67 -0.68 0.34 0 0 Z " fill="#455FAE" transform="translate(338,219)"/>
<path d="M0 0 C0.5625 1.9375 0.5625 1.9375 1 4 C0 5 0 5 -1.84765625 5.09765625 C-3.8984375 5.06510417 -5.94921875 5.03255208 -8 5 C-7.67 4.34 -7.34 3.68 -7 3 C-5.02 3 -3.04 3 -1 3 C-0.67 2.01 -0.34 1.02 0 0 Z " fill="#A1BB66" transform="translate(439,200)"/>
<path d="M0 0 C3.40312738 1.05875074 6.01353231 2.00902154 9 4 C8.67 4.66 8.34 5.32 8 6 C5.36 4.68 2.72 3.36 0 2 C0 1.34 0 0.68 0 0 Z " fill="#5E73B5" transform="translate(184,195)"/>
<path d="M0 0 C3 1 3 1 6 3 C1.98195309 3.84098656 -1.01803543 4.05404945 -5 3 C-2 1 -2 1 0 0 Z " fill="#4B6EB6" transform="translate(299,169)"/>
<path d="M0 0 C0.33 1.32 0.66 2.64 1 4 C1.66 4 2.32 4 3 4 C2.67 4.66 2.34 5.32 2 6 C-0.4375 5.625 -0.4375 5.625 -3 5 C-3.33 4.34 -3.66 3.68 -4 3 C-3.34 3 -2.68 3 -2 3 C-1.67 2.34 -1.34 1.68 -1 1 C-0.67 0.67 -0.34 0.34 0 0 Z " fill="#5B84BF" transform="translate(278,169)"/>
<path d="M0 0 C2.97 0.33 5.94 0.66 9 1 C6.08235 2.9451 4.37462715 3.45276317 1 4 C0.67 2.68 0.34 1.36 0 0 Z " fill="#4F6CB2" transform="translate(340,168)"/>
<path d="M0 0 C0.66 0 1.32 0 2 0 C1.30058404 3.14737182 0.23921302 6.02588876 -1 9 C-1.66 9 -2.32 9 -3 9 C-2.30058404 5.85262818 -1.23921302 2.97411124 0 0 Z " fill="#96BB73" transform="translate(471,265)"/>
<path d="M0 0 C3.1875 0.875 3.1875 0.875 6 2 C2.5647952 4.29013653 1.014669 4.17842973 -3 4 C-3 3.34 -3 2.68 -3 2 C-2.01 1.34 -1.02 0.68 0 0 Z " fill="#2D58B4" transform="translate(313,222)"/>
<path d="M0 0 C0.33 0.66 0.66 1.32 1 2 C0.34 2 -0.32 2 -1 2 C-1.33 3.65 -1.66 5.3 -2 7 C-2.99 7 -3.98 7 -5 7 C-3.75023244 3.34683329 -3.32901247 2.21934164 0 0 Z " fill="#98BA73" transform="translate(408,193)"/>
<path d="M0 0 C0.66 0 1.32 0 2 0 C3.125 3.75 3.125 3.75 2 6 C0.68 5.67 -0.64 5.34 -2 5 C-1.34 3.35 -0.68 1.7 0 0 Z " fill="#2B58AA" transform="translate(287,160)"/>
<path d="M0 0 C0.66 0.33 1.32 0.66 2 1 C2 1.99 2 2.98 2 4 C-0.31 4.66 -2.62 5.32 -5 6 C-3.35 4.02 -1.7 2.04 0 0 Z " fill="#16419F" transform="translate(394,157)"/>
<path d="M0 0 C0.99 0.33 1.98 0.66 3 1 C3 1.66 3 2.32 3 3 C1.68 3 0.36 3 -1 3 C-1 3.99 -1 4.98 -1 6 C-1.66 6 -2.32 6 -3 6 C-3.33 5.01 -3.66 4.02 -4 3 C-2.1875 1.4375 -2.1875 1.4375 0 0 Z " fill="#3D53B4" transform="translate(358,136)"/>
<path d="M0 0 C1.65 0 3.3 0 5 0 C4.67 0.99 4.34 1.98 4 3 C3.34 3 2.68 3 2 3 C2 3.66 2 4.32 2 5 C1.01 5 0.02 5 -1 5 C-0.67 3.35 -0.34 1.7 0 0 Z " fill="#2646A7" transform="translate(357,139)"/>
<path d="M0 0 C1.5 1.375 1.5 1.375 3 3 C3 3.66 3 4.32 3 5 C0.03 4.505 0.03 4.505 -3 4 C-3.33 4.66 -3.66 5.32 -4 6 C-4 5.01 -4 4.02 -4 3 C-2 1.3125 -2 1.3125 0 0 Z " fill="#1D4097" transform="translate(365,259)"/>
<path d="M0 0 C0.33 0.66 0.66 1.32 1 2 C2.65 2 4.3 2 6 2 C6 2.33 6 2.66 6 3 C5.195625 3.12375 4.39125 3.2475 3.5625 3.375 C2.2940625 3.684375 2.2940625 3.684375 1 4 C0.67 4.66 0.34 5.32 0 6 C-0.99 6 -1.98 6 -3 6 C-3 5.01 -3 4.02 -3 3 C-2.01 3 -1.02 3 0 3 C0 2.01 0 1.02 0 0 Z " fill="#697DBD" transform="translate(224,237)"/>
<path d="M0 0 C0.33 0.66 0.66 1.32 1 2 C1.99 2 2.98 2 4 2 C4.33 1.34 4.66 0.68 5 0 C4.67 1.65 4.34 3.3 4 5 C1.525 4.01 1.525 4.01 -1 3 C-0.67 2.01 -0.34 1.02 0 0 Z " fill="#1A409E" transform="translate(375,228)"/>
<path d="M0 0 C1.98 0 3.96 0 6 0 C6.33 0.99 6.66 1.98 7 3 C4.69 2.67 2.38 2.34 0 2 C0 1.34 0 0.68 0 0 Z " fill="#8CB242" transform="translate(445,211)"/>
<path d="M0 0 C0 0.66 0 1.32 0 2 C-1.8125 2.6875 -1.8125 2.6875 -4 3 C-5.75 1.5625 -5.75 1.5625 -7 0 C-4.3333581 -1.33332095 -2.83319697 -0.67102033 0 0 Z " fill="#193F9A" transform="translate(245,213)"/>
<path d="M0 0 C2.475 0.99 2.475 0.99 5 2 C5 2.99 5 3.98 5 5 C3.68 5 2.36 5 1 5 C0.67 3.35 0.34 1.7 0 0 Z " fill="#1A44B4" transform="translate(182,196)"/>
<path d="M0 0 C-2 2 -2 2 -5.0625 2.5 C-6.5165625 2.7475 -6.5165625 2.7475 -8 3 C-8.33 3.66 -8.66 4.32 -9 5 C-9 3.68 -9 2.36 -9 1 C-6.04335481 -0.4783226 -3.25770263 -0.06032783 0 0 Z " fill="#3467AC" transform="translate(147,190)"/>
<path d="M0 0 C0 0.99 0 1.98 0 3 C-1.98 3 -3.96 3 -6 3 C-6 2.01 -6 1.02 -6 0 C-3 -1 -3 -1 0 0 Z " fill="#1B46AA" transform="translate(362,175)"/>
<path d="M0 0 C-0.66 0 -1.32 0 -2 0 C-2 0.99 -2 1.98 -2 3 C-0.68 3.33 0.64 3.66 2 4 C0.35 4 -1.3 4 -3 4 C-3.33 3.01 -3.66 2.02 -4 1 C-4.99 0.67 -5.98 0.34 -7 0 C-3.86650268 -1.04449911 -3.01031744 -0.93423645 0 0 Z " fill="#3860BB" transform="translate(310,172)"/>
<path d="M0 0 C1.65 0.33 3.3 0.66 5 1 C4.01 1.495 4.01 1.495 3 2 C2.67 2.99 2.34 3.98 2 5 C1.01 5 0.02 5 -1 5 C-0.67 3.35 -0.34 1.7 0 0 Z " fill="#153F9F" transform="translate(275,167)"/>
<path d="M0 0 C0.99 0 1.98 0 3 0 C3 2.97 3 5.94 3 9 C0.87491756 5.81237635 0.4979837 3.73487777 0 0 Z " fill="#7AAE4F" transform="translate(454,246)"/>
<path d="M0 0 C1.32 0 2.64 0 4 0 C4 2.64 4 5.28 4 8 C3.01 8.33 2.02 8.66 1 9 C1.66 6.36 2.32 3.72 3 1 C2.01 0.67 1.02 0.34 0 0 Z " fill="#5A71B1" transform="translate(236,238)"/>
<path d="M0 0 C1.5 1.3125 1.5 1.3125 3 3 C3 3.99 3 4.98 3 6 C1.68 5.67 0.36 5.34 -1 5 C-0.67 3.35 -0.34 1.7 0 0 Z " fill="#32539D" transform="translate(354,225)"/>
<path d="M0 0 C1.98 0 3.96 0 6 0 C6 0.66 6 1.32 6 2 C4.35 2.66 2.7 3.32 1 4 C0.34 3.34 -0.32 2.68 -1 2 C-0.67 1.34 -0.34 0.68 0 0 Z " fill="#4E67A0" transform="translate(218,221)"/>
<path d="M0 0 C5.53846154 0.49230769 5.53846154 0.49230769 7.875 3.0625 C8.431875 4.0215625 8.431875 4.0215625 9 5 C4.98525763 5 3.18024863 3.33218233 0 1 C0 0.67 0 0.34 0 0 Z " fill="#5D6EAA" transform="translate(173,205)"/>
<path d="M0 0 C1.98 0.99 1.98 0.99 4 2 C4 2.66 4 3.32 4 4 C5.32 4.33 6.64 4.66 8 5 C5.3333581 6.33332095 3.83319697 5.67102033 1 5 C0.67 3.35 0.34 1.7 0 0 Z " fill="#6F80BF" transform="translate(373,180)"/>
<path d="M0 0 C0.66 0.33 1.32 0.66 2 1 C1.38125 1.598125 0.7625 2.19625 0.125 2.8125 C-2.13676954 5.00811144 -2.13676954 5.00811144 -4 8 C-4.33 6.68 -4.66 5.36 -5 4 C-3.35 2.68 -1.7 1.36 0 0 Z " fill="#1E45A1" transform="translate(280,179)"/>
<path d="M0 0 C2.31 0 4.62 0 7 0 C7.33 0.66 7.66 1.32 8 2 C5.69 2.33 3.38 2.66 1 3 C0.67 2.01 0.34 1.02 0 0 Z " fill="#6177B4" transform="translate(331,173)"/>
<path d="M0 0 C0.33 0.99 0.66 1.98 1 3 C-1.31 3.33 -3.62 3.66 -6 4 C-5.67 3.01 -5.34 2.02 -5 1 C-3.35 0.67 -1.7 0.34 0 0 Z " fill="#274998" transform="translate(351,169)"/>
<path d="M0 0 C0.33 0.66 0.66 1.32 1 2 C1.66 2 2.32 2 3 2 C2.34 3.32 1.68 4.64 1 6 C-0.32 5.67 -1.64 5.34 -3 5 C-2.34 4.67 -1.68 4.34 -1 4 C-0.34786708 1.97536745 -0.34786708 1.97536745 0 0 Z " fill="#456BB6" transform="translate(258,165)"/>
<path d="M0 0 C0.66 0.99 1.32 1.98 2 3 C1.01 3.495 1.01 3.495 0 4 C-0.33 4.99 -0.66 5.98 -1 7 C-1.66 6.67 -2.32 6.34 -3 6 C-3.625 3.9375 -3.625 3.9375 -4 2 C-2.68 2 -1.36 2 0 2 C0 1.34 0 0.68 0 0 Z " fill="#5A79BB" transform="translate(275,164)"/>
<path d="M0 0 C0.66 0.33 1.32 0.66 2 1 C0.35 2.98 -1.3 4.96 -3 7 C-4.125 3.25 -4.125 3.25 -3 1 C-2.01 0.67 -1.02 0.34 0 0 Z " fill="#5671B3" transform="translate(394,161)"/>
<path d="M0 0 C0.33 0.99 0.66 1.98 1 3 C0.34 3.66 -0.32 4.32 -1 5 C-1.99 5 -2.98 5 -4 5 C-4 5.66 -4 6.32 -4 7 C-4.66 7 -5.32 7 -6 7 C-5.67 6.01 -5.34 5.02 -5 4 C-4.34 4 -3.68 4 -3 4 C-3 3.34 -3 2.68 -3 2 C-2.01 1.34 -1.02 0.68 0 0 Z " fill="#173A92" transform="translate(355,150)"/>
<path d="M0 0 C1.125 1.75 1.125 1.75 2 4 C1.125 6.25 1.125 6.25 0 8 C-0.66 7.34 -1.32 6.68 -2 6 C-1.44444444 1.44444444 -1.44444444 1.44444444 0 0 Z " fill="#3355A7" transform="translate(356,145)"/>
<path d="M0 0 C0.99 0.495 0.99 0.495 2 1 C1.01 1.495 1.01 1.495 0 2 C0 1.34 0 0.68 0 0 Z " fill="#AAAAAA" transform="translate(475,211)"/>
<path d="" fill="#FFFFFF" transform="translate(0,0)"/>
<path d="" fill="#FFFFFF" transform="translate(0,0)"/>
<path d="" fill="#FFFFFF" transform="translate(0,0)"/>
<path d="" fill="#FFFFFF" transform="translate(0,0)"/>
<path d="" fill="#FFFFFF" transform="translate(0,0)"/>
<path d="" fill="#FFFFFF" transform="translate(0,0)"/>
<path d="" fill="#FFFFFF" transform="translate(0,0)"/>
<path d="" fill="#FFFFFF" transform="translate(0,0)"/>
<path d="" fill="#FFFFFF" transform="translate(0,0)"/>
<path d="" fill="#FFFFFF" transform="translate(0,0)"/>
<path d="" fill="#FFFFFF" transform="translate(0,0)"/>
<path d="" fill="#FFFFFF" transform="translate(0,0)"/>
<path d="" fill="#FFFFFF" transform="translate(0,0)"/>
<path d="" fill="#FFFFFF" transform="translate(0,0)"/>
<path d="" fill="#FFFFFF" transform="translate(0,0)"/>
<path d="" fill="#FFFFFF" transform="translate(0,0)"/>
<path d="" fill="#FFFFFF" transform="translate(0,0)"/>
<path d="" fill="#FFFFFF" transform="translate(0,0)"/>
<path d="" fill="#FFFFFF" transform="translate(0,0)"/>
<path d="" fill="#FFFFFF" transform="translate(0,0)"/>
<path d="" fill="#FFFFFF" transform="translate(0,0)"/>
<path d="" fill="#FFFFFF" transform="translate(0,0)"/>
<path d="" fill="#FFFFFF" transform="translate(0,0)"/>
<path d="" fill="#FFFFFF" transform="translate(0,0)"/>
<path d="" fill="#FFFFFF" transform="translate(0,0)"/>
<path d="" fill="#FFFFFF" transform="translate(0,0)"/>
<path d="" fill="#FFFFFF" transform="translate(0,0)"/>
<path d="" fill="#FFFFFF" transform="translate(0,0)"/>
<path d="" fill="#FFFFFF" transform="translate(0,0)"/>
<path d="" fill="#FFFFFF" transform="translate(0,0)"/>
<path d="" fill="#FFFFFF" transform="translate(0,0)"/>
<path d="" fill="#FFFFFF" transform="translate(0,0)"/>
<path d="" fill="#FFFFFF" transform="translate(0,0)"/>
<path d="" fill="#FFFFFF" transform="translate(0,0)"/>
<path d="" fill="#FFFFFF" transform="translate(0,0)"/>
<path d="" fill="#FFFFFF" transform="translate(0,0)"/>
<path d="" fill="#FFFFFF" transform="translate(0,0)"/>
<path d="" fill="#FFFFFF" transform="translate(0,0)"/>
<path d="" fill="#000000" transform="translate(0,0)"/>
<path d="" fill="#FFFFFF" transform="translate(0,0)"/>
<path d="" fill="#FFFFFF" transform="translate(0,0)"/>
<path d="" fill="#FFFFFF" transform="translate(0,0)"/>
<path d="" fill="#FFFFFF" transform="translate(0,0)"/>
<path d="" fill="#FFFFFF" transform="translate(0,0)"/>
<path d="" fill="#FFFFFF" transform="translate(0,0)"/>
<path d="" fill="#FFFFFF" transform="translate(0,0)"/>
<path d="" fill="#FFFFFF" transform="translate(0,0)"/>
<path d="" fill="#FFFFFF" transform="translate(0,0)"/>
<path d="" fill="#FFFFFF" transform="translate(0,0)"/>
<path d="" fill="#FFFFFF" transform="translate(0,0)"/>
<path d="" fill="#FFFFFF" transform="translate(0,0)"/>
<path d="" fill="#808080" transform="translate(0,0)"/>
<path d="" fill="#FFFFFF" transform="translate(0,0)"/>
<path d="" fill="#FFFFFF" transform="translate(0,0)"/>
<path d="" fill="#FFFFFF" transform="translate(0,0)"/>
<path d="" fill="#FFFFFF" transform="translate(0,0)"/>
<path d="" fill="#FFFFFF" transform="translate(0,0)"/>
<path d="" fill="#FFFFFF" transform="translate(0,0)"/>
<path d="" fill="#FFFFFF" transform="translate(0,0)"/>
<path d="" fill="#FFFFFF" transform="translate(0,0)"/>
<path d="" fill="#FFFFFF" transform="translate(0,0)"/>
<path d="" fill="#FFFFFF" transform="translate(0,0)"/>
<path d="" fill="#FFFFFF" transform="translate(0,0)"/>
<path d="" fill="#FFFFFF" transform="translate(0,0)"/>
<path d="" fill="#FFFFFF" transform="translate(0,0)"/>
<path d="" fill="#FFFFFF" transform="translate(0,0)"/>
<path d="" fill="#FFFFFF" transform="translate(0,0)"/>
<path d="" fill="#FFFFFF" transform="translate(0,0)"/>
<path d="" fill="#FFFFFF" transform="translate(0,0)"/>
<path d="" fill="#FFFFFF" transform="translate(0,0)"/>
<path d="" fill="#FFFFFF" transform="translate(0,0)"/>
<path d="" fill="#FFFFFF" transform="translate(0,0)"/>
<path d="" fill="#FFFFFF" transform="translate(0,0)"/>
<path d="" fill="#FFFFFF" transform="translate(0,0)"/>
<path d="" fill="#FFFFFF" transform="translate(0,0)"/>
<path d="" fill="#FFFFFF" transform="translate(0,0)"/>
<path d="" fill="#FFFFFF" transform="translate(0,0)"/>
<path d="" fill="#FFFFFF" transform="translate(0,0)"/>
<path d="" fill="#FFFFFF" transform="translate(0,0)"/>
<path d="" fill="#FFFFFF" transform="translate(0,0)"/>
<path d="" fill="#FFFFFF" transform="translate(0,0)"/>
<path d="" fill="#FFFFFF" transform="translate(0,0)"/>
<path d="" fill="#FFFFFF" transform="translate(0,0)"/>
<path d="" fill="#FFFFFF" transform="translate(0,0)"/>
<path d="" fill="#FFFFFF" transform="translate(0,0)"/>
<path d="" fill="#FFFFFF" transform="translate(0,0)"/>
<path d="" fill="#FFFFFF" transform="translate(0,0)"/>
</svg>
